<?xml version="1.0" encoding="utf-8"?>
<!-- Generator: Adobe Illustrator 18.1.1, SVG Export Plug-In . SVG Version: 6.00 Build 0)  -->
<!DOCTYPE svg PUBLIC "-//W3C//DTD SVG 1.1//EN" "http://www.w3.org/Graphics/SVG/1.1/DTD/svg11.dtd">
<svg version="1.1" id="Layer_1" xmlns="http://www.w3.org/2000/svg" xmlns:xlink="http://www.w3.org/1999/xlink" x="0px" y="0px"
	 viewBox="0 0 322.6 322.9" style="enable-background:new 0 0 322.6 322.9;" xml:space="preserve">
<style type="text/css">
	.st0{fill:#C9B17D;stroke:#000000;stroke-width:0.5;stroke-linecap:round;stroke-linejoin:round;}
	.st1{fill:#C9B17D;stroke:#000000;stroke-width:4;stroke-linecap:round;stroke-linejoin:round;}
	.st2{fill:#FFFFFF;}
</style>
<path class="st0" d="M175,174c0,0,24.7,2,46.2,12.6c21.5,10.6,42.1-6.5,42.1-6.5s-18-28.9-26.8-27.9C227.7,153.2,175,174,175,174z"
	/>
<path class="st1" d="M175,174c0,0,51.5-26,64.4-21.2c12.8,4.8,21.9,26.2,24.6,27.3"/>
<path class="st0" d="M228.6,155.6"/>
<path d="M223.5,240.4l-40-145.5l-10.5-38.1c0,0-5.6-17.6,5.8-23.8c11.4-6.2,18.5,19.9,18.5,19.9l43.6,185.5L223.5,240.4z"/>
<path class="st0" d="M283.2,114.3"/>
<path class="st1" d="M65.8,236.1l15-2.8c0,0,42.6-54.8,85.2-59.1c2.8-0.2,5.4-0.4,8-0.3h1c0.5,0,0.9,0,1.3,0.1l5.2,0.4
	c32.3,3.6,50.4,26.6,75.2,8.3c2.5-1.9,4.6-2.7,6.5-2.7c11,0,10.7,30.5,6.3,58.7c-0.2,1.2-0.4,2.4-0.6,3.6v0.1
	c-3.2,19.3-8.1,36.8-12.2,41.6c-7.4,8.7-58.1,12.1-92.3,13.6c1.8-1.1-46.1,10.3-44.7,9.3"/>
<path class="st2" d="M176.3,94.7c0,0,35.4-1.3,37.5-6.2c2.1-4.9,7.6,13.6,7.6,13.6s-38.9,11.3-43.5,8.4S176.3,94.7,176.3,94.7z"/>
<path d="M171.6,51.2c0,0-20.5-12.1,14.6,99l5,1.2c0,0-25.3-85.3-18.5-94.5L171.6,51.2z"/>
<g>
</g>
<g>
</g>
<g>
</g>
<g>
</g>
<g>
</g>
<g>
</g>
</svg>
