<?xml version="1.0" encoding="utf-8"?>
<!-- Generator: Adobe Illustrator 18.1.1, SVG Export Plug-In . SVG Version: 6.00 Build 0)  -->
<!DOCTYPE svg PUBLIC "-//W3C//DTD SVG 1.1//EN" "http://www.w3.org/Graphics/SVG/1.1/DTD/svg11.dtd">
<svg version="1.1" id="Layer_1" xmlns="http://www.w3.org/2000/svg" xmlns:xlink="http://www.w3.org/1999/xlink" x="0px" y="0px"
	 viewBox="0 0 68.9 106.5" enable-background="new 0 0 68.9 106.5" xml:space="preserve">
<polygon fill="#AF927E" points="65.5,87.1 68.9,89.4 68.5,90 65.1,87.7 65,88 67.8,89.9 67.4,90.5 64.6,88.6 64.2,89.2 66.5,90.7 
	66.1,91.4 62.9,89.3 59,86.7 59.2,86.4 50.9,80 50.9,80 50.9,80 50.9,69 54.9,69 54.9,79.8 60.7,83.7 61.3,83 62.7,83.8 65.1,82.4 
	65.8,83.6 63.9,84.8 65.6,86 68.9,88.2 68.6,88.8 65.7,86.9 "/>
<polygon fill="#AF927E" points="18.9,68 18.9,80.2 18.6,80.2 9.8,86.3 10,86.7 6,89.3 2.9,91.4 2.4,90.7 4.7,89.2 4.4,88.6 
	1.5,90.5 1.1,89.9 4,88 3.9,87.7 0.4,90 0.1,89.4 3.5,87.1 3.3,86.9 0.4,88.8 0,88.2 3.3,86 5,84.8 3.1,83.6 3.8,82.4 6.2,83.8 
	7.5,83 8,83.5 13.9,79.5 13.9,68 "/>
<polygon fill="#505C89" points="60.9,90 60.9,94 59.9,94 59.9,95.5 57.5,96 57.2,95 57.8,97.1 43.6,100.4 43,103.6 30.7,101.3 
	22.3,104.7 20.1,99.1 7.9,96.7 7.9,95 5.9,95 5.9,94 4.9,94 4.9,90 5.9,90 5.9,89 6.9,89 6.9,87 8,87 8.5,85.4 21.9,88.2 21.9,84 
	46.9,84 46.9,87.2 57.1,85.1 57.2,85.4 57.3,85.3 57.6,87 58.9,87 58.9,89 59.9,89 59.9,90 "/>
<polygon points="55.9,62 55.9,69 48.9,69 48.9,89 19.9,89 19.9,69 12.9,69 12.9,62 13.9,62 13.9,61 14.9,61 14.9,60 21.9,60 
	21.9,59 46.9,59 46.9,60 52.9,60 52.9,61 54.9,61 54.9,62 "/>
<polygon fill="#AF927E" points="43.9,50 43.9,61 41.9,61 41.9,63 26.9,63 26.9,61 24.9,61 24.9,50 "/>
<polygon points="55.9,28 55.9,45 53.9,45 53.9,47 52.9,47 52.9,49 50.9,49 50.9,52 48.9,52 48.9,54 44.9,54 44.9,56 41.9,56 
	41.9,57 27.9,57 27.9,56 24.9,56 24.9,54 21.9,54 21.9,52 19.9,52 19.9,49 17.9,49 17.9,47 15.9,47 15.9,45 13.9,45 13.9,28 
	15.9,28 15.9,14 17.9,14 17.9,10 19.9,10 19.9,8 21.9,8 21.9,6 24.9,6 24.9,5 28.9,5 28.9,3 29.9,3 29.9,2 30.9,2 30.9,0 40.9,0 
	40.9,2 41.9,2 41.9,3 42.9,3 42.9,5 44.9,5 44.9,6 47.9,6 47.9,8 49.9,8 49.9,10 52.9,10 52.9,14 53.9,14 53.9,28 "/>
<rect x="13.9" y="28" fill="#AF927E" width="2.7" height="17"/>
<rect x="53.6" y="28" fill="#AF927E" width="2.5" height="17"/>
<polygon fill="#AF927E" points="52.9,27 52.9,43 50.9,43 50.9,46 48.9,46 48.9,47 46.9,47 46.9,48 45.9,48 45.9,50 42.9,50 42.9,46 
	26.9,46 26.9,50 24.9,50 24.9,48 22.9,48 22.9,47 20.9,47 20.9,46 18.9,46 18.9,43 17.9,43 17.9,27 18.9,27 18.9,20 20.9,20 
	20.9,17 48.9,17 48.9,20 50.9,20 50.9,27 "/>
<rect x="30.3" y="49.9" fill="#AF927E" width="2.6" height="5.3"/>
<rect x="30.4" y="49.9" fill="#AF927E" width="9.2" height="2.4"/>
<rect x="37.6" y="49.9" fill="#AF927E" width="2.1" height="5.3"/>
<rect x="40" y="31.3" width="4.1" height="2.5"/>
<rect x="24.9" y="31.3" width="4.4" height="2.5"/>
<rect x="36.7" y="28.9" width="9.7" height="1.7"/>
<rect x="21.2" y="28.9" width="9.7" height="1.7"/>
<rect x="36.7" y="32.8" fill="#8C7565" width="0.9" height="10"/>
<rect x="32.6" y="32.8" fill="#8C7565" width="0.9" height="10"/>
<rect x="37.5" y="42" fill="#8C7565" width="2.3" height="0.8"/>
<rect x="39.2" y="42.1" fill="#8C7565" width="0.8" height="2.3"/>
<polygon fill="#AF927E" points="18.4,80.2 18.4,80.2 18.3,80.2 "/>
<rect x="44" y="93.6" transform="matrix(0.9708 0.24 -0.24 0.9708 25.1549 -8.2438)" width="4.9" height="11.1"/>
<rect x="17.6" y="94.1" transform="matrix(-0.9231 0.3844 -0.3844 -0.9231 76.935 184.687)" width="4.9" height="11.9"/>
</svg>
