<?xml version="1.0" encoding="utf-8"?>
<!-- Generator: Adobe Illustrator 18.1.1, SVG Export Plug-In . SVG Version: 6.00 Build 0)  -->
<!DOCTYPE svg PUBLIC "-//W3C//DTD SVG 1.1//EN" "http://www.w3.org/Graphics/SVG/1.1/DTD/svg11.dtd">
<svg version="1.1" id="Layer_1" xmlns="http://www.w3.org/2000/svg" xmlns:xlink="http://www.w3.org/1999/xlink" x="0px" y="0px"
	 viewBox="0 0 322.6 322.9" style="enable-background:new 0 0 322.6 322.9;" xml:space="preserve">
<style type="text/css">
	.st0{fill:#F9F9FA;stroke:#000000;stroke-miterlimit:10;}
	.st1{fill:#C9B17D;stroke:#000000;stroke-miterlimit:10;}
	.st2{fill:#C9B17D;stroke:#000000;stroke-width:0.5;stroke-linecap:round;stroke-linejoin:round;}
	.st3{fill:#5E5E5A;stroke:#000000;stroke-miterlimit:10;}
</style>
<path class="st0" d="M182.9,57.2l9.2,7.3l11,8.9v9l-7.4,12.9h-9.6l-9.8,5h-7.8l-11.2,10c0,0-0.4-12.7-2-16.1
	c-1.6-3.5-8.7-18.4-8.7-18.4l14-30.1L182.9,57.2z"/>
<path class="st0" d="M157.1,64.5c0,0,13.1-2.6,15.9,5.4s10.4,15.9,10.4,15.9s-8.2,2.1-18.2,5.2S157.1,64.5,157.1,64.5z"/>
<path class="st0" d="M162.2,100.8l21.3-15c0,0,15,15,11.6,0c-3.5-15-7.1-21.9-7.1-21.9l-8.4-8.9h-7.9l-7.5,22.9l-9.7,3.6
	L162.2,100.8z"/>
<path class="st1" d="M173.1,100.2c0,0,11.2-22.1,13.1-24s-2.1-11.8-3.6-11.8c-1.4,0-6.8,12.8-6.6,13.4s-16.4,5.6-16.4,5.6
	L173.1,100.2z"/>
<path class="st2" d="M283.2,114.3"/>
<path class="st1" d="M105.3,286.1c0,0,93-64,107.4-74.9s3-26.7-0.2-42.6c-4.6-22.5-42.5-70.4-47.2-77.6c-4.7-7.2-5.8-14.4-4.9-18.9
	s4-22.4,14.6-19.7c10.6,2.7,10.6,2.7,10.6,2.7s2.5-8.7-3.1-9.6s-23-1.8-29.7,4.5c-2.2,2.1-18.1,16.5-14.9,22.7
	c3.2,6.3,8.6,27.2,8.6,27.2s16.4,49,16.9,52.3c0.5,3.3-0.7,27.3,5.7,35.5c0,0-6.9,1.7-22.7,3.8c-6.7,0.9-32.4,11.2-36.6,19.6
	c-4.2,8.4-14.6,16.6-14.6,16.6l-7.9,9.9L105.3,286.1z"/>
<path class="st3" d="M82.5,228.5c0,0,36-32.9,42.6-27.3s22.1,59.1,21.5,58.8s-40.9,31.4-40.9,31.4L82.5,228.5z"/>
<g>
</g>
<g>
</g>
<g>
</g>
<g>
</g>
<g>
</g>
<g>
</g>
</svg>
