<?xml version="1.0" encoding="utf-8"?>
<!-- Generator: Adobe Illustrator 18.1.1, SVG Export Plug-In . SVG Version: 6.00 Build 0)  -->
<!DOCTYPE svg PUBLIC "-//W3C//DTD SVG 1.1//EN" "http://www.w3.org/Graphics/SVG/1.1/DTD/svg11.dtd">
<svg version="1.1" id="Layer_1" xmlns="http://www.w3.org/2000/svg" xmlns:xlink="http://www.w3.org/1999/xlink" x="0px" y="0px"
	 viewBox="221 0 350 612" enable-background="new 221 0 350 612" xml:space="preserve">
<path fill="#C9C9C9" stroke="#000002" stroke-miterlimit="10" d="M302.3,271.4l27.7,147.6c0,0,27.5,21.5,66.1,21.5
	s50.8-17.4,50.8-17.4l25.6-151.7H302.3z"/>
<ellipse fill="#FDFDFF" stroke="#000002" stroke-miterlimit="10" cx="387.4" cy="269.4" rx="85.1" ry="16.4"/>
<path fill="#FDFDFF" stroke="#000002" stroke-miterlimit="10" d="M307.2,297.9c0,0,83.5,25.5,160.7,0l-1.9,11.3
	c0,0-69.6,26.5-156.7,0L307.2,297.9z"/>
<path fill="#FDFDFF" stroke="#000002" stroke-miterlimit="10" d="M319.3,279.2c0,0-32.4-36.5-17-39.6c15.4-3.1,17,4.1,17,4.1
	l5.5,9.2h5.1l10.3,6.1c0,0,5.1,8.3,0,10.3s-5.1,2.1-5.1,2.1l12.3,7.8H319.3z"/>
<path fill="#FDFDFF" stroke="#000002" stroke-miterlimit="10" d="M357.6,259.1l-17.4-6.1l-5.1,3l-8.2,13.4l8.2,2.1l7.2,7.8l15.4,5.5
	l9.2-5.5c0,0-2.1-1.6,0-7.8c2.1-6.2,2.1-6.2,2.1-6.2L357.6,259.1z"/>
<path fill="#FDFDFF" stroke="#000002" stroke-miterlimit="10" d="M347.9,271.4l29.2,13.3v-13.3c1-6.2,10.3-6.2,1-6.2
	c-9.2,0-3.6,3.1-9.2,0c-5.6-3.1-3.6-6.2-12.3,0S347.9,271.4,347.9,271.4z"/>
<path fill="#FDFDFF" stroke="#000002" stroke-miterlimit="10" d="M444.8,261.7c-0.5-4.5-1.6-11.3-6.7-8.7c-5.1,2.6-6.7-0.6-6.7-0.6
	s-3.1-7.6-17.4-5.6c-14.4,2.1-19.6,7.9-18,11.1c1.6,3.3,0,15.3,0,15.3s10.8,8.6,14.9,6C415,276.6,445.3,266.3,444.8,261.7z"/>
<path fill="#FDFDFF" stroke="#000002" stroke-miterlimit="10" d="M387.4,238.9c0,0-9.1,13.8-12.3,14.1c-3.2,0.3,2.1,18.5,2.1,18.5
	s15.6,2.4,18.6,8.3c3,5.9-3.2,0.5,6,0c9.2-0.5,11.3-8.3,11.3-8.3v-8.3c0,0-1.3-3.7-4.1-9.1C406.1,248.6,387.4,238.9,387.4,238.9z"/>
<path fill="#FDFDFF" stroke="#000002" stroke-miterlimit="10" d="M368.9,246.5l-14.4,6.5l-6.7,18.5l26.1,7.8l22.6-17.5
	c0,0,2.3-6.5-1-8.7S368.9,246.5,368.9,246.5z"/>
<path fill="#FDFDFF" stroke="#000002" stroke-miterlimit="10" d="M459.1,268.9v-22.4c-10.3-2.7-13.3,1.4-21,6.5
	c-7.7,5.1-2.1-7.4-10.8,7.7c-8.7,15.1-10.3,24.1-10.3,24.1s28.7,0.2,42-6.6C472.4,271.4,459.1,268.9,459.1,268.9z"/>
<path fill="#FDFDFF" stroke="#000002" stroke-miterlimit="10" d="M341.2,238.9l18.5-10.5c0,0,9.2,3.1,14.4,0s14.4-9.2,19.5-4.1
	c5.1,5.1,20.5,22.6,20.5,22.6s-9.9,6.3-18.3,6.2c-8.4-0.1-11.4,6.9-18.1,6s-13.8-7.1-17.9-10.2c-4.1-3.1,0-9.1-4.1-8.2
	C351.5,241.7,341.2,238.9,341.2,238.9z"/>
<path fill="#FDFDFF" stroke="#000002" stroke-miterlimit="10" d="M354.6,253c0,0-7.2-24.9,0-21.7c7.2,3.2,14.4-0.3,14.4-0.3l8.7,9.7
	c0,0,9.2,6.2,4.6,12.3c-4.6,6.1-14.8,6.2-14.8,6.2L354.6,253z"/>
<path fill="#FDFDFF" stroke="#000002" stroke-miterlimit="10" d="M515.5,412.9h-10.3l-15.4-6.2c0,0-8.2,5.1-9.2,14.4
	s4.1,11.3,0,14.4c-4.1,3.1,22.6,14.4,26.7,14.4c4.1,0-17.4,14.4,4.1,0c21.5-14.4,25.6-18.3,25.6-18.3v-9.3l-15.4-3.1L515.5,412.9z"
	/>
<path fill="#FDFDFF" stroke="#000002" stroke-miterlimit="10" d="M529.9,444.7l-6.2-13.2h-9.2l-11.3,6.6v6.6l-8.2,7.2v9.2
	c0,0,9.2-1,17.4,0c8.2,1,17.4-9.2,17.4-9.2V444.7z"/>
<path fill="#FDFDFF" stroke="#000002" stroke-miterlimit="10" d="M512.4,440.6l-3.8-9.1L495,436l-7.2,10.3v5.5
	c7.2,0,19.5-2.1,19.5-2.1L512.4,440.6z"/>
<path fill="#FDFDFF" stroke="#000002" stroke-miterlimit="10" d="M430.4,468.3c0,0-14.4-3.1-16.4,0s-6.2,8.2-6.2,11.3
	s-4.1,4.1,0,9.2c4.1,5.1,10.4,5.1,10.4,5.1h26.5c0,0,3.1,10.3,7.2,0c4.1-10.3,13.1-20.5,13.1-20.5l-3.9-12.2h-20.1l-5.5,18.6
	L430.4,468.3z"/>
<path fill="#FDFDFF" stroke="#000002" stroke-miterlimit="10" d="M444.8,467.2l-3.7-6.1h-11.7c0,0-3.4,6.3-5.3,6.1
	c-1.8-0.2-6,3.6-11.2,12.6c-5.1,9,31.8,0,31.8,0s6.1,7.4,5.1,0C448.9,472.4,444.8,467.2,444.8,467.2z"/>
<path fill="#FDFDFF" stroke="#000002" stroke-miterlimit="10" d="M261.3,408.2c-3.1,0.4-12.3-4.6-12.3-4.6l-13.3,4.7
	c0,0-5.1,7.7-6.2,14.8s-6.2-0.1-1,7.1c5.1,7.2,20.5,11.5,20.5,11.5l12.3-7.3l8.2-11.3l-9.2-9.3L261.3,408.2z"/>
<path fill="#FDFDFF" stroke="#000002" stroke-miterlimit="10" d="M257.2,399.7l-12.3,10.2c0,0-7.3,6.1-4.1,10.2
	c3.1,4.1-6.1,1,3.1,4.1c9.2,3.1-13.3,2.1,9.2,3.1c22.6,1,30.8,0,30.8,0v-12.7l-10.3-5.7L257.2,399.7z"/>
</svg>
