<?xml version="1.0" encoding="utf-8"?>
<!-- Generator: Adobe Illustrator 18.1.1, SVG Export Plug-In . SVG Version: 6.00 Build 0)  -->
<!DOCTYPE svg PUBLIC "-//W3C//DTD SVG 1.1//EN" "http://www.w3.org/Graphics/SVG/1.1/DTD/svg11.dtd">
<svg version="1.1" id="Layer_1" xmlns="http://www.w3.org/2000/svg" xmlns:xlink="http://www.w3.org/1999/xlink" x="0px" y="0px"
	 viewBox="0 0 488 315.5" enable-background="new 0 0 488 315.5" xml:space="preserve">
<path d="M330.3,143.1c0,14.9,0,28.7,0,43.1c-14.4,0-28.2,0-42.9,0c0,14.6,0,28.6,0,43.1c-19.4,0-38.1,0-57.2,0c0,19.4,0,38.2,0,57.9
	c9,0,18.2,0,27.8,0c0,9.8,0,18.8,0,28.3c-37.8,0-75.5,0-114.2,0c0-28.7,0-56.9,0-85.6C95.4,230,48,230,0,230c0-9.7,0-18.9,0-28.6
	c4.3,0,8.5,0,13.5,0c0-4.9,0-9.3,0-14.3c5,0,9.3,0,14.3,0c0-4.9,0-9.3,0-14.6c5.2,0,9.6,0,14.6,0c0-9.8,0-18.9,0-28.7
	c19.4,0,38.1,0,57.5,0c0-9.8,0-18.9,0-28.7c9.7,0,19,0,29,0c0-10,0-19.2,0-29c14.6,0,28.5,0,43.1,0c0-9.8,0-19,0-28.7
	c9.8,0,18.9,0,28.7,0c0-9.8,0-19,0-28.7c14.6,0,28.5,0,43.1,0c0-4.9,0-9.3,0-14.6c10,0,19.2,0,29,0c0-5,0-9.3,0-14
	c38.4,0,76.2,0,114.8,0c0,8.9,0,18.1,0,28.3c19.4,0,38,0,57.3,0c0,10,0,19,0,29c14.7,0,28.7,0,43.1,0c0,14.4,0,27.7,0,41.9
	c-32.9,0-65.9,0-99.6,0c-0.2,5.2-0.4,9.7-0.7,14.9c-9.2,0-18.4,0-28.4,0c0,10,0,19.2,0,29C349.4,143.1,340.4,143.1,330.3,143.1z
	 M172,229.9c0,19.5,0,38.3,0,57.5c9.7,0,18.9,0,28.4,0c0-19.3,0-38.3,0-57.5C191,229.9,182,229.9,172,229.9z M344.7,28.6
	c-10,0-19.2,0-28.2,0c0,9.7,0,18.9,0,28c9.7,0,18.9,0,28.2,0C344.7,47,344.7,38,344.7,28.6z"/>
<path fill="#FFFFFF" d="M172,229.9c9.9,0,18.9,0,28.4,0c0,19.3,0,38.3,0,57.5c-9.6,0-18.8,0-28.4,0C172,268.3,172,249.5,172,229.9z"
	/>
<path fill="#FFFFFF" d="M344.7,28.6c0,9.4,0,18.4,0,28c-9.3,0-18.5,0-28.2,0c0-9,0-18.2,0-28C325.5,28.6,334.7,28.6,344.7,28.6z"/>
</svg>
