<?xml version="1.0" encoding="utf-8"?>
<!-- Generator: Adobe Illustrator 18.1.1, SVG Export Plug-In . SVG Version: 6.00 Build 0)  -->
<!DOCTYPE svg PUBLIC "-//W3C//DTD SVG 1.1//EN" "http://www.w3.org/Graphics/SVG/1.1/DTD/svg11.dtd">
<svg version="1.1" id="Layer_1" xmlns="http://www.w3.org/2000/svg" xmlns:xlink="http://www.w3.org/1999/xlink" x="0px" y="0px"
	 viewBox="0 0 526.9 374.6" enable-background="new 0 0 526.9 374.6" xml:space="preserve">
<path d="M483.8,119.9v-29h-57.3V62.6H311.7v14h-29v14.6h-11.3V54.1h-13.1V36.8h-14.2v-14h-25.7V11.5h-25.3V2.3H94.7V0H0v23h21.7
	v31.1h25.6v17.2h14.6v64.8h16.4v14.5h30.5v23h44.3v4h-14.3v28.7H81.3v28.7H66.7v14.6H52.4v14.3H38.9v28.6h143.8
	c0,28.7-15.3-0.5-29.8,24.2c33.4,19.6,66,38.7,98.5,57.8c4.8-8.2,9.3-15.9,14.3-24.4c-8.3-4.9-16.2-9.5-24-14.1
	c9.9-16.9,27.4-24.7,27.4-44.1h57.2v-43.1h42.9v-43.1h29v-29h28.4c0.2-5.3,0.5-9.7,0.7-14.9h99.6v-41.9H483.8z M383.6,119.2h-28.2
	v-28h28.2V119.2z"/>
</svg>
