<?xml version="1.0" encoding="utf-8"?>
<!-- Generator: Adobe Illustrator 18.1.1, SVG Export Plug-In . SVG Version: 6.00 Build 0)  -->
<!DOCTYPE svg PUBLIC "-//W3C//DTD SVG 1.1//EN" "http://www.w3.org/Graphics/SVG/1.1/DTD/svg11.dtd">
<svg version="1.1" id="Layer_1" xmlns="http://www.w3.org/2000/svg" xmlns:xlink="http://www.w3.org/1999/xlink" x="0px" y="0px"
	 viewBox="0 0 322.6 322.9" style="enable-background:new 0 0 322.6 322.9;" xml:space="preserve">
<style type="text/css">
	.st0{fill:#C9B17D;stroke:#000000;stroke-miterlimit:10;}
	.st1{fill:#C9B17D;stroke:#000000;stroke-width:0.5;stroke-linecap:round;stroke-linejoin:round;}
	.st2{fill:#5E5E5A;stroke:#000000;stroke-miterlimit:10;}
</style>
<path class="st0" d="M173.1,100.2c0,0,8.3-17.4,10.1-19.2s8.1-10.9,6.6-10.9c-1.4,0-14,7.2-13.9,7.8s-16.4,5.6-16.4,5.6L173.1,100.2
	z"/>
<path class="st1" d="M283.2,114.3"/>
<path class="st0" d="M105.3,286.1c0,0,93-64,107.4-74.9s3-26.7-0.2-42.6c-4.6-22.5-42.5-70.4-47.2-77.6c-4.7-7.2-9.9-15.8-8.9-20.2
	c0.9-4.5,1.1-13.7,4.9-29.2l6.3-7.8l2.3-4c-0.5-0.9-0.6-2-2-2.2c-5.6-0.9-14.6,11.9-21.2,18.3c-2.2,2.1-11.9,20.7-8.6,26.9
	c3.2,6.3,8.6,27.2,8.6,27.2s16.4,49,16.9,52.3c0.5,3.3-0.7,27.3,5.7,35.5c0,0-6.9,1.7-22.7,3.8c-6.7,0.9-32.4,11.2-36.6,19.6
	c-4.2,8.4-14.6,16.6-14.6,16.6l-7.9,9.9L105.3,286.1z"/>
<path class="st2" d="M82.5,228.5c0,0,36-32.9,42.6-27.3s22.1,59.1,21.5,58.8s-40.9,31.4-40.9,31.4L82.5,228.5z"/>
<g>
</g>
<g>
</g>
<g>
</g>
<g>
</g>
<g>
</g>
<g>
</g>
</svg>
