<?xml version="1.0" encoding="utf-8"?>
<!-- Generator: Adobe Illustrator 18.1.1, SVG Export Plug-In . SVG Version: 6.00 Build 0)  -->
<!DOCTYPE svg PUBLIC "-//W3C//DTD SVG 1.1//EN" "http://www.w3.org/Graphics/SVG/1.1/DTD/svg11.dtd">
<svg version="1.1" id="Layer_1" xmlns="http://www.w3.org/2000/svg" xmlns:xlink="http://www.w3.org/1999/xlink" x="0px" y="0px"
	 viewBox="0 0 792 612" enable-background="new 0 0 792 612" xml:space="preserve">
<g>
	<path fill="#2E054C" d="M218.5,56c-10.9,39-26.8,76.3-47.3,111.2c-1.7,2.9,12.3,10.6,14.3,7.2c20.5-34.9,36.4-72.2,47.3-111.2
		C234,59.1,219.3,53.2,218.5,56L218.5,56z"/>
</g>
<g>
	<path fill="#2E054C" d="M231.5,65.1c31.5,3.7,62.8,9.4,93.6,17.1c-3.1-2.6-6.1-5.2-9.2-7.9c-25.3,18.2-55.8,28-87,27.6
		c-3.1,0-0.7,3,0.4,3.9c2.5,2.3,6.1,4,9.5,4.6c22.8,4,45.3,9.4,67.4,16.3c5.2,1.6,10.4,3.7,15.7,5.2c0.2,0.1,0.4,0.2,0.6,0.2
		c-2.9-2.6-4.2-2.5-3.8,0.3c-0.4,0.7-0.7,1.9-1,2.6c-1,2.3-2.1,4.5-3.2,6.7c-3.8,7.6-8,14.9-12.7,21.9
		c-19.6,29.1-46.9,52.7-78.4,68.1c-8.9,4.4-18.2,8-27.7,11c-4.7,1.5-9.5,2.8-14.4,3.9c-2.2,0.5-4.4,0.9-6.7,1
		c-1.1,0.1-2.5-0.2-3.6,0c-0.3-0.1-0.7-0.1-1-0.2c3.2,2.3,4,2.4,2.6,0.4c-1.6-2.9-6.3-4.9-9.4-5.8c-1.7-0.5-5.8-1.2-4.1,1.8
		c5,9,17.6,12.9,27.3,12.2c9.9-0.7,20.1-4.2,29.5-7.5c19.7-7,38.2-17.1,54.8-29.8c16.4-12.5,30.9-27.4,42.9-44.3
		c6-8.5,11.4-17.5,15.9-26.9c1.8-3.7,5-8.5,3.5-12.7c-1.8-5-8.7-7.9-13.2-9.6c-28.6-10.9-59.3-18-89.4-23.2c3.3,2.8,6.5,5.6,9.8,8.4
		c31.8,0.4,63.2-9.4,89-28c3.4-2.4-7.7-7.5-9.2-7.9c-31.9-8-64.2-14-96.9-17.8c-3-0.3-3.6,1.1-1.6,3.2
		C223.6,62.5,228.1,64.7,231.5,65.1L231.5,65.1z"/>
</g>
<g>
	<path fill="#2E054C" d="M333.6,148.8c0.8,7.4-0.3,14.5-3.3,21.4c-1.1,2.5,9,7.3,10,5c3.1-7.2,4.2-14.6,3.4-22.4
		C343.3,149.9,333.3,146.5,333.6,148.8L333.6,148.8z"/>
</g>
<g>
	<path fill="#2E054C" d="M391.3,155.2c-1.2-9.7-16.2-13.6-23.5-9c-5.1,3.2-9.4,8.3-13,13c-4,5.2-8.7,11.6-9.9,18.1
		c-2.1,11.2,10.6,17.3,19.7,19c12.3,2.4,25.4-0.2,36.2-6.5c2-1.2-6.7-7.2-9.2-5.7c-6.8,4-14.3,6.5-22.2,7c-3.3,0.2-6.8,0.2-10-0.5
		c-4.4-0.9-5.2-5-4.3-9c1.6-6.8,6.6-13.4,10.8-18.7c2.4-3,5.1-6,8-8.6c1.3-1.2,2.8-2.3,4.4-3.2c1.1-0.6,2.2-1,3.5-1.2
		c-0.8-0.1-1,0.3-0.5,1.2C381.6,154.1,391.6,157.5,391.3,155.2L391.3,155.2z"/>
</g>
<g>
	<path fill="#2E054C" d="M397.6,94.4c6.5,65.9,13.1,131.9,19.6,197.8c0.3,2.9,10.3,6.3,10.1,4c-6.5-65.9-13.1-131.9-19.6-197.8
		C407.3,95.6,397.3,92.1,397.6,94.4L397.6,94.4z"/>
</g>
<g>
	<path fill="#2E054C" d="M418.3,173.6c5-11.3,10.8-22.2,17.4-32.6c1.8-2.8-12.1-10.6-14.3-7.2c-6.6,10.5-12.4,21.3-17.4,32.6
		C402.5,169.9,416.9,176.8,418.3,173.6L418.3,173.6z"/>
</g>
<g>
	<path fill="#2E054C" d="M411.7,160.5c7.1,15.6,18.1,28.8,32.2,38.7c2.5,1.7,7,4.8,10.2,4.1c3.1-0.7,0.7-3.2-1-4.4
		c-11.8-8.3-21-19.5-27-32.7c-1.4-3-5-4.9-8-6C417.5,159.9,410.6,158,411.7,160.5L411.7,160.5z"/>
</g>
<g>
	<path fill="#2E054C" d="M450.2,156.7c-0.2,27.2-3.3,54.2-9.3,80.8c-0.7,3,9.6,6.9,10,5c6.1-26.9,9.2-54.3,9.4-81.8
		C460.3,158,450.2,154.1,450.2,156.7L450.2,156.7z"/>
</g>
<g>
	<path fill="#2E054C" d="M458.4,160.4c3.8-1,10.9-4,14.7-3.2c-2.4-1.2-4.7-2.4-7.1-3.6c1.5,1.5,1.2,6.2,1.1,8.1
		c-0.1,2.8-0.7,5.5-1.7,8.1c-2,5.3-5.5,9.7-10.2,12.8c-0.6,0.4-0.5,0.9-0.1,1.5c17.2,29.9,37.9,57.6,61.7,82.6
		c1.6,1.7,4.7,3.5,7.1,3.6c1.9,0.1,2.7-0.6,1.1-2.3c-23.3-24.6-43.6-51.8-60.4-81.2c0,0.5-0.1,1-0.1,1.5c8.9-6,14.1-16.6,12.5-27.4
		c-0.7-5-3.9-7.9-8.7-9.4c-6-1.8-13.4,1.6-19.2,3c-2,0.5,2.1,3.5,2.5,3.7C453.5,159.5,456.2,160.9,458.4,160.4L458.4,160.4z"/>
</g>
<g>
	<path fill="#2E054C" d="M491.2,207.5c2-17.3,5.6-34.4,10.7-51c-1.9-0.3-3.9-0.6-5.8-0.9c2.9,1.6,4.4,7.3,5.3,10.2
		c1.3,4,2.4,8,3.5,12.1c2.7,9.3,5.3,18.5,8,27.8c0.6,2.1,3.8,3.5,5.6,4.2c0.6,0.2,5,1.7,4.5-0.2c-3.5-12-6.9-24.1-10.4-36.1
		c-2.7-9.3-6.2-16.3-14.9-21.1c-0.7-0.4-5.3-2.5-5.8-0.9c-5.1,16.7-8.6,33.7-10.7,51C480.8,205.7,491,209,491.2,207.5L491.2,207.5z"
		/>
</g>
<g>
	<path fill="#2E054C" d="M503.1,188.2c4.3,0.5,8.6,1,12.9,1.5c2,0.2,2.6-0.8,1.1-2.3c-1.6-1.7-4.7-3.3-7.1-3.6
		c-4.3-0.5-8.6-1-12.9-1.5c-2-0.2-2.6,0.8-1.1,2.3C497.7,186.3,500.7,187.9,503.1,188.2L503.1,188.2z"/>
</g>
<g>
	<path fill="#2E054C" d="M537,243.2c2-36.1,4-72.3,6-108.4c-3.4-1.3-6.7-2.7-10.1-4c2,16,6.1,31.4,12.4,46.3c0.6,1.5,9.2,7.3,10,4.5
		c3.3-11.3,5-22.8,5.1-34.5c-3.4-1.3-6.7-2.7-10.1-4c7.4,27.1,10.7,55,9.8,83c-0.1,2.7,10,6.7,10.1,4c0.9-28-2.4-56-9.8-83
		c-0.6-2.3-10.1-6.9-10.1-4c0,11.4-1.7,22.6-5,33.5c3.3,1.5,6.7,3,10,4.5c-6.2-14.8-10.4-30.3-12.4-46.3c-0.3-2.5-9.9-6.8-10.1-4
		c-2,36.1-4,72.3-6,108.4C526.8,241.9,536.9,246,537,243.2L537,243.2z"/>
</g>
<g>
	<path fill="#2E054C" d="M269.1,268.6c-0.3,26.5-0.6,53-0.9,79.5c0,3.9,14.3,9.5,14.4,5.7c0.3-26.5,0.6-53,0.9-79.5
		C283.6,270.5,269.2,264.9,269.1,268.6L269.1,268.6z"/>
</g>
<g>
	<path fill="#2E054C" d="M233.2,263.2c30.2,5.6,59.7,14.9,87.3,28.2c23.8,11.4,49,25.1,66,45.8c13.7,16.7,28.5,51.8,1.8,64.5
		c-9.8,4.7-21.4,4.1-31.9,2.3c-14.9-2.5-29.6-6.7-44-11.6c-16.5-5.6-32.5-12.4-48.3-19.8c-7.6-3.6-15.2-7.2-22.8-11
		c-4.1-2-8.1-4-12.2-6.1c-1.7-0.9-3.5-1.8-5.2-2.6c-2.5-1.3-2.3-1.2,0.5,0.3c1-0.7,0.9-1-0.1-0.9c-3.4-1.7-6.7-3.4-10.1-5.1
		c0.2,0.2,0.4,0.4,0.5,0.6c2.3,2.6,6.7,4.7,10.1,5.1c2.9,0.3,3.7-1,1.6-3.2c-2.3-2.6-14.7-10.1-16.4-3.2
		c-1.6,6.3,11.9,11.3,15.8,13.2c16.9,8.5,33.8,16.8,51.1,24.4c17.4,7.7,35.2,14.6,53.5,20c15.5,4.6,31.7,9.1,47.9,9.7
		c12.1,0.4,25.6-2,33.4-12.2c9.5-12.5,5.7-30.1-0.7-43.1c-13.9-28.4-42.2-46.8-69-61.6c-36.6-20.2-76.4-34.3-117.5-41.9
		c-3-0.6-3.5,1.2-1.6,3.2C225.5,260.7,229.8,262.5,233.2,263.2L233.2,263.2z"/>
</g>
<g>
	<path fill="#2E054C" d="M424.9,365.3c-0.6,6.2-1.2,12.4-1.8,18.5c-0.4,3.8-2.2,9.9-0.2,13.6c1.7,3.1,6.2,5.2,9.4,6
		c4.7,1.2,8.4-1.6,13-1.3c2.5,0.1,0-2.6-0.7-3.1c-1.9-1.6-4.6-2.7-7.1-2.9c-1.9-0.1-5.6,0.1-7.1,1.4c-1.7,0.3-1.1,1.1,2,2.2
		c0-0.6,0-1.3,0-1.9c0.5-1.7,0.4-4.1,0.6-5.9c0.7-7.2,1.4-14.3,2.1-21.5C435.2,367.1,425.1,363.8,424.9,365.3L424.9,365.3z"/>
</g>
<g>
	<path fill="#2E054C" d="M430.2,383.3c8.8,0.2,17.5-1.1,25.8-4c1.9-0.7-2-3.4-2.5-3.7c-1.7-1.1-4.6-2.7-6.7-2
		c-7.9,2.7-16,3.9-24.4,3.7c-2.5-0.1,0,2.5,0.7,3.1C425,381.9,427.7,383.2,430.2,383.3L430.2,383.3z"/>
</g>
<g>
	<path fill="#2E054C" d="M434.6,365.5c6.4-0.4,12.7-1.9,18.5-4.5c1.8-0.8-1.9-3.4-2.5-3.7c-1.5-0.9-4.8-2.8-6.7-2
		c-5.5,2.4-11.2,3.9-17.1,4.2c-2.4,0.1-0.1,2.4,0.7,3.1C429.3,364.1,432.2,365.7,434.6,365.5L434.6,365.5z"/>
</g>
<g>
	<path fill="#2E054C" d="M490,357.4c-1.9-12.7-9.2-23.7-19.5-31.1c-3.4-2.4-11.8-8.7-16.2-6.6c-5.1,2.4,2.5,10.5,4.1,12.8
		c8.1,11.9,12.3,25.9,15.1,39.9c1.3,6.8,2.3,13.6,3.1,20.4c0.5,3.7,1.1,7.4,1.3,11.1c0.1,1.9,0.2,4.2-0.7,6
		c-0.4,1.1-1.1,1.9-2.2,2.4c-3.2,0.5-2,1.5,3.5,2.8c-0.8-2.1-3.6-3.5-5.6-4.2c-0.5-0.2-5.2-1.6-4.5,0.2c2.3,6,15.1,11.5,18.7,3.8
		c2-4.4,0.4-10.4-0.1-14.9c-0.7-5.5-1.4-11-2.3-16.5c-1.7-10.6-4.1-21.2-8.1-31.2c-1.8-4.5-3.9-9-6.4-13.1
		c-1.2-2-10.1-12.6-6.3-13.9c-0.9-0.1-1.9-0.1-2.8-0.2c5.1,1.3,9.7,7.2,12.5,11.4c3.4,5.1,5.4,10.9,6.3,16.9
		C480.4,356.3,490.3,359.6,490,357.4L490,357.4z"/>
</g>
<g>
	<path fill="#2E054C" d="M494.8,352.7c5.7,16.2,10.4,32.6,14.1,49.3c0.7,3,10.5,6,10.1,4c-3.7-16.7-8.4-33.2-14.1-49.3
		c-0.7-2.1-3.7-3.5-5.6-4.2C498.8,352.3,494.1,350.8,494.8,352.7L494.8,352.7z"/>
</g>
<g>
	<path fill="#2E054C" d="M535.7,355.2c0.1,0.1,0.3,0.2,0.4,0.3c1.4,1.1,5.8,3.8,7.8,2.7c4.3-2.3-2.8-6.3-4.7-7
		c-6.2-2.4-8.7,2.2-12,6.8c-4,5.5-7.4,11.4-10.3,17.6c-2.2,4.7-5.9,11.4-5.1,16.8c0.8,4.7,6.1,7.5,10.3,8.8c5,1.6,10.7,0.5,15.6-1.1
		c5.7-1.8,10.9-4.9,15.9-8.2c2.4-1.5,4.7-3.1,7-4.7c0.7-0.4,6.9-4.7,6.5-4.9c-1.8-1.2-3.5-2.4-5.3-3.6c0.1,0.3,0.1,0.5,0.2,0.8
		c0.2,2.8,10.2,6.5,10.1,4c-0.2-3.1-4.4-5-6.9-6c-3.5-1.3-6.3-1-9.4,0.9c-7.7,4.8-14.8,10.6-23.2,14.3c-1.8,0.8-3.6,1.5-5.5,2
		c-1.4,0.4-2.9,0.7-4.4,0.9c-0.5,0.1-1,0.1-1.5,0.2c-1-0.1-1,0.1,0,0.6c0.9,0.9,1.1,0.7,0.6-0.7c0.1-0.7,0.1-1.3,0.2-2
		c0.1-0.8,0.4-1.7,0.7-2.5c0.8-2.5,1.8-5,2.8-7.5c2.1-4.9,4.5-9.7,7.3-14.2c1.6-2.7,7.3-13.5,10.9-13.3c-2.9-1.5-5.8-2.9-8.6-4.4
		c0.3-0.1,0.1,0.1-0.4,0.5c2.6,0.9,5.2,1.8,7.8,2.7c-0.1-0.1-0.3-0.2-0.4-0.3c-1.5-1.2-5.1-3.5-7.1-2.9
		C532.9,352.8,534.4,354.2,535.7,355.2L535.7,355.2z"/>
</g>
<g>
	<path fill="#2E054C" d="M560.8,376.6c-1.1,20-0.8,40.1,1.1,60c0.3,2.9,10.3,6.4,10.1,4c-1.8-20-2.2-40-1.1-60
		C571.1,378,561,373.9,560.8,376.6L560.8,376.6z"/>
</g>
<g>
	<path fill="#2E054C" d="M581.7,356.1c0.3,18.6,1.6,37.2,3.8,55.7c0.3,2.9,10.3,6.3,10.1,4c-2.2-18.5-3.5-37.1-3.8-55.7
		C591.7,357.3,581.6,353.5,581.7,356.1L581.7,356.1z"/>
</g>
<g>
	<path fill="#2E054C" d="M596.2,366.6c-0.2-0.2-0.4-0.3-0.5-0.5c0.3,0.6,0.6,1.2,0.9,1.9c-0.1-0.8,0.3-1.3,1.1-1.4
		c-1.8-0.4-3.6-0.8-5.4-1.3c0.4,0.2,0.7,0.3,1.1,0.5c-1.3-1-2.6-2-3.9-3c2.3,2.7,3.5,6.4,5.2,9.5c1.8,3.4,3.8,6.8,5.8,10.1
		c4.1,6.6,8.6,13,13.5,19c9.5,11.8,20.4,22.4,32.3,31.8c0.8,0.6,8.8,4.6,8.3,1.9c-4.2-20.9-12-40.9-14.2-62.2
		c-2.2-21.4,0.5-43.1,7.6-63.4c0.9-2.7-9.3-7.2-10-5c-7,20.1-9.7,41.5-7.8,62.6c2,22,10.1,42.5,14.4,64c2.8,0.6,5.5,1.3,8.3,1.9
		c-15.7-12.3-29.2-27-40.1-43.7c-2.6-4-5-8-7.3-12.1c-2.1-3.8-3.6-8.4-6.4-11.7c-1.9-2.3-6.6-5.1-9.7-4.8c-3,0.3-3,2.8-1.2,4.6
		c1.7,1.7,4.6,3.5,7.1,3.6C596.9,368.9,597.9,368.2,596.2,366.6L596.2,366.6z"/>
</g>
<g>
	<path fill="#2E054C" d="M689.5,391.3c-12.3-10.3-23.2-22.1-32.4-35.3c-1.3-1.9-7.5-6-9.7-3.9c-5.3,5-0.8,13.1,1.8,18.4
		c3.5,7.3,7.3,14.5,11.4,21.4c8.4,14,18.1,27.1,28.9,39.4c-0.2-0.7-0.3-1.5-0.5-2.2c-4.2,2-8.7,1.4-13.1,0.1c1.7,0.8,3.4,1.7,5,2.5
		c-0.3-0.2-0.6-0.4-0.9-0.6c0.6,0.7,1.2,1.4,1.8,2.1c-1.1-2.4,2.4-2.8,3.9-2.9c2.5,0,0.1-2.5-0.7-3.1c-1.8-1.5-4.7-2.9-7.1-2.9
		c-2.2,0-6.3,0.6-6.5,3.4c-0.3,2.6,3.6,4.7,5.5,5.6c6,3,15,4.3,21.3,1.4c1.1-0.5-0.1-1.7-0.5-2.2c-10-11.3-19-23.5-26.8-36.5
		c-3.8-6.2-7.3-12.6-10.5-19.1c-2.7-5.4-8.6-14.6-3.1-19.9c-3.2-1.3-6.5-2.6-9.7-3.9c10.1,14.3,22,27,35.4,38.2
		c1.4,1.2,5.1,3.5,7.1,2.9C692.3,393.7,690.8,392.3,689.5,391.3L689.5,391.3z"/>
</g>
<g>
	<path fill="#2E054C" d="M485.6,315.8c1.5,0.4,3.6,0.8,2.9-1.3c-0.6-1.9-4.9-3.6-6.6-4c-1.5-0.4-3.6-0.8-2.9,1.3
		C479.7,313.6,483.9,315.4,485.6,315.8L485.6,315.8z"/>
</g>
</svg>
