<?xml version="1.0" encoding="utf-8"?>
<!-- Generator: Adobe Illustrator 18.1.1, SVG Export Plug-In . SVG Version: 6.00 Build 0)  -->
<!DOCTYPE svg PUBLIC "-//W3C//DTD SVG 1.1//EN" "http://www.w3.org/Graphics/SVG/1.1/DTD/svg11.dtd">
<svg version="1.1" id="Layer_1" xmlns="http://www.w3.org/2000/svg" xmlns:xlink="http://www.w3.org/1999/xlink" x="0px" y="0px"
	 viewBox="0 0 792 612" enable-background="new 0 0 792 612" xml:space="preserve">
<path fill="#C9B17D" stroke="#000000" stroke-width="0.5" stroke-linecap="round" stroke-linejoin="round" d="M461.4,227.4"/>
<circle fill="#F9F9F9" stroke="#000000" stroke-width="10" stroke-miterlimit="10" cx="376.7" cy="282.4" r="104.8"/>
<path fill="#000002" d="M356.6,193.3c19.2-5.3,29.7-3,46.9,4.9c17.2,7.9,19.2,20.8,21.2,29.6s13.2,69.8,12.3,83.7
	c0,0,2,13.1-0.7,18.7c-2.8,5.6-13.5,18.5-17.8,24.1c-4.3,5.6-1.8,13.9-9.9,17.4s-15.6,5.8-23.6,5.4s-10.4-2-13.2-6.9
	c-2.8-4.8-17.1-9-21.9-11.8c-4.9-2.8-12.6-4.7-17-23c-3.9-16.4-21-63.5-22.9-71.7c-1.8-8.2-10.2-25.9,7.5-44.6
	C335.2,200.5,339,198.3,356.6,193.3z"/>
<path fill="#FFFFFF" d="M329.1,288.3c0,0-14.3-21.7,23.9-19c0,0-15.1-29.1-13.9-62c0,0,6,9.4,3.4,14.9c-0.7,1.5,6.8,4.4,6.7,7.4
	c-0.2,3.4-4.5,5.6-4.5,5.6c1.1,3.9,6.9,6.1,8.4,10c1.8,4.6-2.1,6.2-2.1,6.2c2.9,3.4,7.8,8.1,9.1,11.4c1.1,2.7-3.7,1.1-3.9,1.6
	c-0.4,1.5,6.1,7.5,6.8,8.1c0,0,6-0.1,12.9-1.7c6.9-1.5,11.6-4.2,11.6-4.2s3.6-14.4,4-12.6c0.1,0.5-5,5.6-5.4,2.6
	c-0.3-2.2,4.9-10,4.5-12.6c0,0-6.3,0.3-6.7-2.4c-0.4-2.7,2.3-9.8,1.9-12.6c0,0-3.9-0.9-4.3-3.5c-0.4-2.5,1.4-6.2,1-8.5
	c0,0-2.7-2.9-3.1-4.9c-1.1-6.9-2.3-9.7-0.5-14.7c0,0,14.8,42.8,15.5,62.4c0,0,34.6-27.2,27,4.6c0,0,3.7-0.3,6.7,22.6
	c3,22.9,6.4,34.5,1.9,41.9c-4.5,7.4-17.3,16.2-17.3,16.2s-2.3-8.3-12-6.2l-8-25.6l4.6,26.2l-6,5.1l-8.6-2.6c0,0-16.4,2.2-14.9,12.6
	c0,0-21.1-5.5-23.5-7.7s-4.5-9.1-9.1-25.6S328.6,302.2,329.1,288.3z"/>
<path fill="#000002" d="M316.1,278.8c0,0-20,1.1-3.1,24.9c16.9,23.8,20.9,24.3,20.9,24.3s-25.4-34.4-21.3-39s5.3-3.7,5.3-3.7
	L316.1,278.8z"/>
<path fill="#000002" d="M389.3,287.3c0,0,15-12.3,22-8.4c7,3.9,12.1,12.2,12.1,12.2s-11.8-9.5-17.5-7.6c-5.7,1.9-13.7,7.9-13.7,7.9
	s-1.5,0.6-3.3-0.9C386.9,289.1,389.3,287.3,389.3,287.3z"/>
<path fill="#000002" d="M371.3,290.1c0,0-20.7-6.7-26.4,0.3c-5.7,6.9-7.6,17.8-7.6,17.8s8.4-14.8,15.2-15.2
	c6.7-0.4,17.6,2.6,17.6,2.6s1.8,0,3.1-2.3S371.3,290.1,371.3,290.1z"/>
<path fill="#FFFFFF" stroke="#1B1772" stroke-miterlimit="10" d="M392.1,350.3c11.4-2.6,14.6-2.5,18.7,5.4c0,0,5.2,5.2-3.2,9.4
	c-7.4,3.7-6.1,3.2-6.1,3.2l-1.3-3.2c0,0-3.6-0.2-5.4,0.4c-1.8,0.6-5,1.3-5,1.3l-0.2,4.2c0,0-6-0.3-7.5-0.6c-1.6-0.3-6-0.3-5.3-7.4
	C377.4,356,378.3,353.4,392.1,350.3z"/>
<path fill="#000002" d="M428.6,251.7c0,0,18.4-8,14,20.9s-7.7,31.1-7.7,31.1s7.2-42.1,1.5-44.4c-5.8-2.3-6.4-0.9-6.4-0.9
	L428.6,251.7z"/>
<path fill="#000002" d="M393.6,309.2c0,0,2-10.4,9.6-13.6c7.6-3.2,14.4,1.3,16.9,4l-4,0.4c0,0,0.6,5.9-5.4,8.3
	C404.7,310.7,394.9,305.9,393.6,309.2z"/>
<path fill="#000002" d="M375.5,313.3c0,0-6.4-8.5-14.5-8.1c-8.2,0.4-12.3,7.5-13.4,11l3.8-1.4c0,0,2.1,5.5,8.4,5.1
	C366.2,319.5,372.9,310.9,375.5,313.3z"/>
</svg>
