<?xml version="1.0" encoding="utf-8"?>
<!-- Generator: Adobe Illustrator 18.1.1, SVG Export Plug-In . SVG Version: 6.00 Build 0)  -->
<!DOCTYPE svg PUBLIC "-//W3C//DTD SVG 1.1//EN" "http://www.w3.org/Graphics/SVG/1.1/DTD/svg11.dtd">
<svg version="1.1" id="Layer_1" xmlns="http://www.w3.org/2000/svg" xmlns:xlink="http://www.w3.org/1999/xlink" x="0px" y="0px"
	 viewBox="0 0 322.6 322.9" style="enable-background:new 0 0 322.6 322.9;" xml:space="preserve">
<style type="text/css">
	.st0{fill:#FFFFFF;}
	.st1{fill:#C9B17D;}
	.st2{fill:#4C2C1C;}
	.st3{fill:#371E13;}
	.st4{fill:#3D3D3D;}
	.st5{fill:#414042;}
	.st6{fill:#727272;}
	.st7{fill:#5E5E5A;}
	.st8{fill:#51514F;}
	.st9{fill:none;stroke:#000000;stroke-miterlimit:10;}
	.st10{fill:none;stroke:#000000;stroke-width:0.5;stroke-miterlimit:10;}
</style>
<g id="XMLID_1_">
	<g>
		<path class="st0" d="M309.6,279.8c0,0,0,0,0,5.3s-6.3,4.8-6.3,4.8c-1.3-4.4-3.8-8.1-3.8-8.1l-5.2-1.5c0,0-0.2,0.1-0.6,0.2h0
			l-6.2-3.7l1-2.6c3.6,1.3,10.5-0.1,12.2-0.2C302.7,274.1,309.6,279.8,309.6,279.8z"/>
		<path class="st0" d="M303.3,289.9c1.3,4.4-0.6,4.5-0.6,4.5s-3.2,1.2-8.3-0.1c0.1-0.6,0-4.5,0-4.5H303.3z"/>
		<path class="st0" d="M303.3,289.9h-9c0,0,0.1,3.8,0,4.5c-0.3-0.1-0.5-0.1-0.8-0.2c-2-0.9-7.3-4.3-7.3-4.3s0.1-0.1,0.2-0.3l1,0.5
			l2.5-3l3.7-6.6c0.4-0.2,0.6-0.2,0.6-0.2l5.2,1.5C299.5,281.8,302.1,285.5,303.3,289.9z"/>
		<path class="st0" d="M293.6,294.2c0.3,0,0.5,0.1,0.8,0.2C294.3,294.5,294,294.4,293.6,294.2z"/>
		<path class="st0" d="M293.7,280.6l-3.7,6.6l-2.5,3l-1-0.5c0.6-0.8,2.5-3.3,3.6-5.6C291,282,292.8,281,293.7,280.6L293.7,280.6z"/>
		<path class="st0" d="M287.5,276.9l6.2,3.7c-1,0.4-2.8,1.5-3.7,3.4c-1,2.3-2.9,4.8-3.6,5.6l-0.4-0.2l-1.2-2.7L287.5,276.9z"/>
		<path class="st0" d="M293.6,294.2c-4.9-0.9-9.8,0.8-9.8,0.2c0-0.6,2.5-4.5,2.5-4.5S291.6,293.3,293.6,294.2z"/>
		<path class="st0" d="M288.5,274.3l-1,2.6l-2.6,9.8l-0.5-1.2l-5-3.3c0,0,1.9-3,0-6.4c-1.8-3.4,5-4.2,8.2-2.1
			C287.8,274,288.2,274.1,288.5,274.3z"/>
		<path class="st0" d="M286,289.4l0.4,0.2c-0.2,0.2-0.2,0.3-0.2,0.3L286,289.4z"/>
		<polygon class="st0" points="284.9,286.7 286,289.4 284.4,288.6 		"/>
		<path class="st1" d="M279.1,285c0,0,3.7,15.8-19.3,9.9c-19.3-5-33.5,5.9-41.7,1.4c-7.4-4-6.4-8.3-5.1-10.8
			c0.3-0.4,0.5-0.7,0.8-1.1c0,0,0-0.1,0.1-0.1c1.4-2,3-4.4,4.6-7c0.1-0.2,0.2-0.2,0.2-0.2c0.1-0.1,0.2-0.3,0.3-0.4l3.7-3.5
			c1.1-0.7,2.3-1.4,3.5-2c2.6-1.5,5-3.1,5.5-6c0,0,0,0,0.1,0.1c1,1.6,5.8,9.3,11.9,9.3c6.8,0,22.6,10,25.9,12.3
			c2.1,1.4,5.4,0.3,7.5-0.7C278.2,285.6,278.9,285.1,279.1,285C279.1,285,279.1,285,279.1,285z"/>
		<path class="st0" d="M279.1,285C279.1,285,279.1,285,279.1,285c-0.2,0.2-1,0.6-2.1,1.1c-1.7,0.7-4.3,1.3-7.5,0.7
			C269.5,286.7,276.8,282.1,279.1,285z"/>
		<path class="st0" d="M277,286.1c1.1-0.5,1.9-1,2-1.1C278.9,285.1,278.2,285.6,277,286.1z"/>
		<path class="st0" d="M231.7,264.8c0.2-0.9,0.1,0.3,0,0.3C231.7,265.1,231.7,265,231.7,264.8z"/>
		<path class="st2" d="M199.3,274.1H195c0,0,4.5-6.8,0-6.8s-17.4-20.6-20.1-26.4c-0.9-1.9-1.5-3.4-1.9-4.8c0,0,0-0.1,0-0.1
			c0.6-0.5,2.8-2.5,6.5-4.4c4.3-2.2,4.3-7,4.3-7L173,236c-1.1-3.9-0.7-5.9-0.2-6.8c-1.1,1.4-3.1,3.1-5.8,4.9c-0.9,0.7-1.9,1.3-3,2
			c-8.2,5.2-19.8,11.3-27.1,15.6c-7.7,4.6-24,17.9-33.6,25.9c-1-0.7-3.2-2.5-4.7-3.6c-1.7-1.2-2.4,1.2-5.5,0
			c-3.1-1.2-4.4,3.4-4.4,3.4l-2.3,4.7c0,0-3.8,1-2.9,2.5c-4,0.2-9.2,0.5-15.8,0.8c-6.2,0.3-12.2-1.8-17.6-5.2c0,0-0.1-0.1-0.2-0.1
			c0.4-2.1,7.9-40.9,36.2-63.1l0,0H86l0,0c1.1-0.1,2.3-0.4,3.5-0.7c3.6-0.5,6.3-1.7,10.6-3.7c0,0,0.1,0,0.1,0c1.1-0.5,2.3-1,3.5-1.5
			l1.2,0.1l4.5,11.1c-0.7,0.7,0.1,0.3,0.1,0.3l-0.1-0.3c0.2-0.2,0.5-0.5,1-0.9c2.2-1.9,67.7-26.1,67.7-26.1s-1.5-2.2-4.1-5.2
			c-2.6-3-2.2-9.8-2.2-9.8c1.4,1,0.6-1,0.2-1.8c4.8-0.7,9.4,0,12.8,3.3c6.7,6.2,47,82.8,47,82.8c0,0.1,0,0.2,0,0.2
			c-0.1-0.2-0.1-0.2-0.1-0.2l-8.9,8.3c-1.4,0.9-2.7,2-3.7,3.5l-0.4,0.4c0,0-3.4,5.1-4.7,7.2c-0.2,0.3-0.5,0.8-0.7,1.3
			c-2,2.8-3.4,4.4-3.4,4.4l-9.3-5.9l-0.1,0c1-0.4,8.8-3.6,11.8-6.5l-11.8,6.5l-3.1-2l5.6-7.9H199.3z M199.4,274.1
			c0.6-0.2,10.9-3.9,16.4-9.3L199.4,274.1z M166.4,218.1c-1.2,2.9-5.5,13.8-2.7,18.1l3-2C166.8,234.2,165.5,221.7,166.4,218.1z
			 M166.5,218c0.2-0.4,0.3-0.6,0.3-0.7C166.6,217.5,166.5,217.7,166.5,218z M173,228.7c0,0,6.5-12.6,2.9-11.5
			C172.2,218.3,173,228.7,173,228.7z"/>
		<path class="st1" d="M231.5,264.8c0,0,0,0.1,0.1,0.2c-0.5,2.9-2.9,4.5-5.5,6c-1.1,0.7-2.3,1.3-3.5,2L231.5,264.8z"/>
		<path class="st0" d="M218.9,276.6c-0.1,0.1-0.2,0.3-0.3,0.4c0,0-0.1,0.1-0.2,0.2c-1.6,2.6-3.2,5-4.6,7c0,0,0,0.1-0.1,0.1
			c-0.3,0.4-0.5,0.8-0.8,1.1c0.3-0.5,0.5-0.9,0.7-1.3c1.3-2.1,4.7-7.2,4.7-7.2L218.9,276.6z"/>
		<path class="st3" d="M199.4,274.1l16.4-9.3C210.3,270.2,200,273.9,199.4,274.1z"/>
		<path class="st0" d="M200.3,284l11.8-6.5C209.2,280.4,201.3,283.6,200.3,284C200.3,284,200.3,284,200.3,284z"/>
		<path class="st3" d="M173,236l10.8-11.4c0,0,0,4.9-4.3,7C175.8,233.5,173.6,235.5,173,236L173,236z"/>
		<path class="st3" d="M175.9,217.2c3.6-1.1-2.9,11.5-2.9,11.5S172.2,218.3,175.9,217.2z"/>
		<path class="st0" d="M173,236L173,236C173,236,173,236,173,236L173,236z"/>
		<path class="st0" d="M170,179l-6.6,2.5c0-0.2,0-0.3,0.1-0.5c1.1-0.5,2.3-0.8,3.4-1.2C168,179.5,169,179.3,170,179z"/>
		<path class="st3" d="M166.8,234.2l-3,2c-2.8-4.3,1.4-15.1,2.7-18.1C165.5,221.7,166.8,234.2,166.8,234.2z"/>
		<path class="st0" d="M166.5,218c0.1-0.3,0.2-0.5,0.3-0.7C166.7,217.4,166.6,217.7,166.5,218z"/>
		<path d="M158.7,77.9c0.6,3.6,1.1,14.7,1.1,14.7c-3.8,1.1-15.9,1.4-15.5,0.2c1.8-1.3,0.5-1.1,1.8-1.3c0.3,0,0.5-0.1,0.7-0.3
			c2.9-1.7,2.6-11,2-16.6l1.1-0.1C151,74.4,158.1,74.6,158.7,77.9z"/>
		<path d="M158.1,74.3l-8,0.1l-1.1,0.1c-0.1-1.5-0.3-2.7-0.4-3.5c-0.2-1.3-1-5.6-3.3-10.6l0.6-0.2c0.3,0.3,3.1-2.3,3.1-2.3
			c0.5,0.3,0.9,0.9,1.4,1.6C153.1,64.2,158.1,74.3,158.1,74.3z"/>
		<path class="st0" d="M144.4,269.5c0,0,8,7.2,7.4,10.9c-0.6,3.7-2.9,0-2.9,0c-0.3-1.8-4.5-3.7-4.5-3.7l-5.2-2.5L144.4,269.5z"/>
		<path class="st0" d="M148.8,280.3c0.3,1.8,0,3.7,0,3.7s-2.8,1.5-4.5,1.5c-0.4,0-1.1,0-1.8,0v-3.3c1,0,1.8-0.4,1.8-1.9
			C144.4,276.7,148.8,280.3,148.8,280.3z"/>
		<path class="st4" d="M148.9,74.6c0.6,5.7,0.9,14.9-2,16.6c3.2-2.2-1.1-15.6-0.3-18.8c0.6-2.4-1-17.9-13.1-25.3
			c5.9,3.5,9.5,8.7,11.7,13.4c2.3,4.9,3.1,9.3,3.3,10.6C148.6,71.9,148.7,73.1,148.9,74.6z"/>
		<path class="st4" d="M146.5,72.4c-0.8,3.2,3.6,16.6,0.3,18.8c-0.2,0.2-0.5,0.2-0.7,0.3c-1.3,0.2,0,0-1.8,1.3
			c0.4-1.1-0.5-4.5-7.6-12c-7.2-7.6-11.2-6-11.2-6s-1.1-5.1-4-6.1c-2.9-1-11.7,13-11.7,13s-9.7,7.9-9.9,11.2s3.9,11.7,3.9,11.7
			s8.5,0.5,8.5,3l-0.5,0.7c-0.9,0.6-2,1.3-3.2,2c-1.4-0.8-4.3-1.6-9,0c-5.8,2-1.1,4.3-1.1,4.3l-5.1,2.1c0,0,0,0,0,0
			c0,0,0-0.1-0.1-0.2c0,0,0-0.1-0.1-0.2c-0.1-0.1-0.1-0.2-0.2-0.4c-0.2-0.3-0.4-0.6-0.6-1.1c-0.7-1.3-1.7-3.1-2.6-5.3l0.6-0.8l0,0
			l-1.2-0.6c-0.3-0.8-0.6-1.6-0.9-2.5c0-0.1,0-0.1-0.1-0.2c-1.3-4.9-2-10.6-0.5-15.7c0.1-0.2,0.1-0.4,0.2-0.6
			c1.1-2.9,2.9-5.8,5.9-8.3c2.8-2,4.7-3.4,5.9-4.3c0,0,0,0,0.1-0.1c4.9-2.9,5.9-1.2,5.9-1.2c5.3-2.5,8.1-6.4,8.1-6.4
			c1.3-3.6,0.5-5.4-1.3-6c-1.1-1-2.7-2-5.2-2.9c-2.6-1-14.6,1.7-17.7,2.4c-0.5,0.1-0.7,0.2-0.7,0.2c0.4-0.8,0.9-1.8,1.6-2.8
			c6.3-8.8,19.4-14.3,28.5-14.8c1.1,0,2.2,0,3.3,0.1c6,0.5,8.7,0.7,10.7,1.8c0.4,0.2,0.7,0.4,1.1,0.6
			C145.5,54.5,147.1,70,146.5,72.4z"/>
		<path class="st0" d="M144.4,276.7c0,0,4.2,1.9,4.5,3.7c0,0-4.5-3.7-4.5,0c0,1.4-0.8,1.9-1.8,1.9c-1.5,0-3.5-1.1-3.5-1.1h-2.7
			l-3.5-0.6l-0.9-0.2l4.4-3.7l2.8-2.5L144.4,276.7z"/>
		<path d="M137.2,46.6c6.7,3.3,11.3,10.2,11.3,10.2s-2.9,2.8-2.9,3.5c0,0,0,0.1,0,0.1l-0.6,0.2c-2.2-4.7-5.8-9.8-11.7-13.4
			c-0.3-0.2-0.7-0.4-1.1-0.6c-2-1.1-4.7-1.3-10.7-1.8c-1.1-0.1-2.2-0.1-3.3-0.1C119.1,44.6,128.6,42.4,137.2,46.6z"/>
		<path class="st1" d="M139.8,177c5.5,3.1,5.8,9.9,5.8,9.9c-1.8,1.3-3.3,3.2-3.3,3.2s-5.9,3.7-14.1,8.4c-2.4,1.3-4.9,2.8-7.6,4.2
			c0,0-0.1,0-0.1,0l-16.8,8.4c0,0-0.1,0-0.1,0c0,0,0,0,0,0c-1.2,0.5-2.3,1-3.3,1.5c0,0-0.1,0-0.1,0c-3.9,1.6-7.5,2.9-10.6,3.7
			c-0.1,0-0.2,0-0.4,0l-3.1,0.6c-0.8-0.2-6-0.4-6.7-0.6l3.6,0l-8.4-6.1c-1.1-0.8-2.8-4.8-3.4-5.9c-2-3.6-3.9-6.2-4.9-7.4L66,197l0,0
			c-0.5-0.5-0.7-0.8-0.7-0.8s0,0-0.1,0h0l-5-5.2c2.8-1.9,19.4-13.4,25.7-26.6c0,0,0,0,0,0c0,0,0,0,0,0c0.1-0.2,0.2-0.5,0.3-0.7
			c0.7,2.5,1.5,4.8,2.3,6.4c2.9,5.2,5.5,12.4,5.5,14.3c0.7-0.2,14.6-5.2,19.1-4.6c4.6,0.7,15-0.7,15-0.7S134.3,174,139.8,177z"/>
		<path class="st1" d="M122.1,92.8c0.1,0.3,1.1,4.7,0,7.1l3.7-2.8L122.1,92.8z M124.6,89.1c0.3,0.3,4.6,5.8,4.6,7.1
			c0,1.4,0,2.7,0,2.7l2.7-2.5C132,96.4,128.1,90.2,124.6,89.1z M136.7,80.7c7.1,7.6,8,10.9,7.6,12c-4.7,3.4-10.3,8.8-12.8,7.9
			c-3.4-1.2-4.9,1.4-4.9,1.4s-0.5,4.1-6.8,9.6c-2.7,2.4-6-5-6-5s-0.9,0.6-2.3,1.5l0.5-0.7c0-2.5-8.5-3-8.5-3s-4.1-8.4-3.9-11.7
			s9.9-11.2,9.9-11.2s8.8-14,11.7-13c2.9,1,4,6.1,4,6.1S129.5,73.2,136.7,80.7z"/>
		<path class="st0" d="M142.6,282.2v3.3c-1.9,0-4.3,0-4.3,0s-3.2-0.7-6-1.9l0.5-3.1l3.5,0.6h2.7
			C139.1,281.1,141.1,282.2,142.6,282.2z"/>
		<path class="st0" d="M139.2,274.2l-2.8,2.5l-4.4,3.7l0.9,0.2l-0.5,3.1c-1.7-0.7-3.3-1.6-4-2.5c-2-2.5-3.7-3.6-3.7-3.6V271l7.3,3.1
			v-4.6l-3.7-1.6h9.5c0,0,0,0,1.3,1.6v4.6L139.2,274.2z"/>
		<path class="st0" d="M132.2,197l-9.8,4.9c2.1-1.1,4.1-2.3,6-3.3C129.7,198.1,131,197.6,132.2,197z"/>
		<path class="st4" d="M132,96.4l-2.7,2.5c0,0,0-1.3,0-2.7c0-1.3-4.3-6.8-4.6-7.1C128.1,90.2,132,96.4,132,96.4z"/>
		<path d="M122.1,92.8l3.7,4.4l-3.7,2.8C123.2,97.4,122.1,93.1,122.1,92.8z"/>
		<path class="st0" d="M120.5,202.9c-0.7,0.4-1.4,0.7-2.1,1.1c0,0,0,0,0,0l-13.1,6.5c-0.6,0.2-1.1,0.5-1.6,0.7L120.5,202.9z"/>
		<path class="st0" d="M105.3,210.5l13.1-6.5C114.1,206.3,109.7,208.5,105.3,210.5z"/>
		<path class="st0" d="M111.8,62.7c1.9,0.6,2.6,2.4,1.3,6c0,0-2.7,3.9-8.1,6.4C109.1,72.6,116.7,67.4,111.8,62.7z"/>
		<path class="st1" d="M111.8,62.7c4.9,4.7-2.7,9.9-6.7,12.4c0,0-1-1.6-5.9,1.2c2.3-1.6,2.3-1.7,2.3-1.7s-13.2,0.1-5.8-5.9
			C100.6,64.9,108.2,61.6,111.8,62.7z"/>
		<path class="st0" d="M111.5,108.2l-2.1,2.8c0,0-0.4-0.4-1.1-0.8C109.5,109.5,110.6,108.8,111.5,108.2z"/>
		<path class="st1" d="M111.8,62.7c-3.6-1.2-11.2,2.2-16.1,6.1c-7.4,6,5.8,5.9,5.8,5.9s0,0.1-2.3,1.7c0,0,0,0-0.1,0.1
			c-1.5,0.9-3.5,2.3-5.9,4.3c-3.1,2.2-4.9,5.1-5.9,8.3c-0.1,0.2-0.1,0.4-0.2,0.6c-1.7,5.3-0.9,10.9,0.5,15.7c0,0.1,0,0.1,0.1,0.2
			c0.2,0.8,0.5,1.6,0.7,2.4c0.2,0.5,0.3,1,0.5,1.5c-0.5,0.4-1.1,0.9-1.8,1.3l-2.9,1c0,0,0,0-0.1,0c0,0,0,0,0,0
			c-0.3-0.5-0.8-1.1-1.2-1.8C80.6,106,67,90,62.1,83.5c8.3-4.7,16.2-9.2,18.3-10.5c0,0,4.7-3.5,7.6-10.2l0.9-0.6
			c3.1-0.7,15.1-3.4,17.7-2.4C109.1,60.7,110.7,61.7,111.8,62.7z"/>
		<path class="st2" d="M109.4,222.5l0.1,0.3C109.5,222.8,108.7,223.2,109.4,222.5z"/>
		<path class="st1" d="M108.3,110.2c-1,0.6-2.1,1.2-3.2,1.9c1.5,1,0,3.2,0,3.2l-3.6-1.2h0c-3.8,2-7.9,3.6-8.5,2.5l5.1-2.1
			c0,0-4.6-2.3,1.1-4.3C104,108.6,106.8,109.4,108.3,110.2z"/>
		<path class="st0" d="M103.6,277.9c0.5,0.2,0.8,4.4-0.2,7.6l-4.3,4.4H93l1-2.3l5.1-2.1l0.9-5.2h0c1-0.8,2-1.7,3.2-2.7
			C103.4,277.8,103.5,277.9,103.6,277.9z"/>
		<path class="st0" d="M98.5,274.1c1.5,1,3.7,2.9,4.7,3.6c-1.2,1-2.3,1.9-3.2,2.7h-7l-3.5,4c-1.7,0.1-3.7,0.2-6.2,0.3
			c-0.8-1.5,2.9-2.5,2.9-2.5l2.3-4.7c0,0,1.3-4.6,4.4-3.4C96.1,275.3,96.8,272.9,98.5,274.1z"/>
		<path class="st0" d="M100,280.3l-0.9,5.2l-5.1,2.1l1.6-3.6C95.6,284,97.3,282.6,100,280.3L100,280.3z"/>
		<path class="st0" d="M93,280.3h7c-2.7,2.3-4.4,3.7-4.4,3.7s-1.5,0.1-6.1,0.3L93,280.3z"/>
		<path class="st0" d="M100.1,212.8c-4.3,2-7,3.1-10.6,3.7C92.6,215.7,96.3,214.4,100.1,212.8z"/>
		<path class="st0" d="M95.6,284l-1.6,3.6l-5.5,2.3l-0.5-3.9l0,0C91.6,285.7,95.6,284,95.6,284z"/>
		<path class="st0" d="M99.1,76.5c-1.2,0.9-3.1,2.3-5.9,4.3C95.6,78.8,97.5,77.4,99.1,76.5z"/>
		<path class="st0" d="M92.7,116.2c0.1,0.1,0.1,0.1,0.1,0.2C92.8,116.3,92.8,116.3,92.7,116.2z"/>
		<path class="st0" d="M92.5,115.8c0.1,0.2,0.2,0.3,0.2,0.4c-0.7-0.9-2.5-3.6-3.6-6.6l0.1-0.2c0.9,2.2,1.9,4.1,2.6,5.3
			C92.1,115.2,92.3,115.5,92.5,115.8z"/>
		<path class="st0" d="M89.5,284.4c4.6-0.3,6.1-0.3,6.1-0.3s-4,1.6-7.5,2L89.5,284.4z"/>
		<path class="st0" d="M89.9,108.6L89.9,108.6c-0.2,0.1-0.4,0.4-0.7,0.7l-0.5-1.3L89.9,108.6z"/>
		<path class="st5" d="M89.8,108.7l-0.6,0.8c0-0.1,0-0.1-0.1-0.2C89.5,109,89.7,108.7,89.8,108.7z"/>
		<path class="st0" d="M89.5,284.4l-1.4,1.6c-1.5,0.2-3,0.1-3.9-0.5c-0.5-0.3-0.8-0.5-0.9-0.8C85.8,284.6,87.8,284.5,89.5,284.4z"/>
		<path class="st0" d="M89.2,109.3c0,0.1,0,0.1,0.1,0.2l-0.1,0.2c0,0,0-0.1-0.1-0.2v0L89.2,109.3z"/>
		<path class="st0" d="M88.6,108l0.5,1.3c0,0-0.1,0.1-0.1,0.1c-0.2-0.5-0.4-1-0.5-1.5c-0.3-0.8-0.5-1.6-0.7-2.4
			C88,106.4,88.3,107.2,88.6,108z"/>
		<path class="st0" d="M89.2,109.3l-0.1,0.2c0,0,0,0,0-0.1C89.1,109.3,89.1,109.3,89.2,109.3z"/>
		<path class="st0" d="M89,109.5L89,109.5c0,0,0.1,0.1,0.1,0.2l-0.5,0.6l-1.4,0.5C87.9,110.3,88.6,109.8,89,109.5
			C89,109.4,89,109.4,89,109.5C89.1,109.5,89.1,109.5,89,109.5z"/>
		<path class="st0" d="M89.1,109.4L89.1,109.4L89.1,109.4C89.1,109.5,89.1,109.5,89.1,109.4z"/>
		<path class="st0" d="M89,62.2l-0.9,0.6c0.1-0.1,0.1-0.3,0.2-0.5C88.3,62.3,88.5,62.3,89,62.2z"/>
		<path class="st0" d="M48.6,89.9l39.4-27.1C85.2,69.5,80.4,73,80.4,73c-2.1,1.3-10,5.8-18.3,10.5c-0.2-0.3-0.4-0.5-0.6-0.7
			C61.6,82.8,55.9,86.4,48.6,89.9z"/>
		<path class="st0" d="M93.2,80.8c-3,2.5-4.8,5.3-5.9,8.3C88.3,85.9,90.2,83,93.2,80.8z"/>
		<path class="st6" d="M39.4,96.3c1.7-1,12.6-7,22.8-12.8C67,90,80.6,106,83,109.9c0.5,0.7,0.9,1.3,1.2,1.8l-5.9-2.1
			c4.3,5.9,1.5,0.8,5.1,1.9c0.3,0.1,0.5,0.1,0.8,0.2c1,1.5,1.5,2.5,1.5,2.5s2.7,20.1,1.6,33.6c-0.2,2.6-1.3,6.5-1.6,10.4
			c-0.1-0.2-0.3-0.5-0.5-0.7c0,0,0,0,0,0c-0.5-1.1-1.1-2.4-1.8-3.7c-0.1-0.4-0.3-0.8-0.4-1.1c-0.3-1.2-0.7-2.3-1.2-3
			c-1.2-2.6-2.3-5.2-2.9-7.2c0-0.2-0.1-0.4-0.1-0.6c-0.2-3.5-2.7-12.8-3.2-14.5c0-0.2-0.1-0.3-0.1-0.3s0-0.1-0.1-0.3c0,0,0,0,0,0
			c-0.2-0.8-0.3-1.3-0.3-1.3s-5.3-12.1-10.9-15.3c-0.4-0.2-0.8-0.4-1.3-0.7c-3.6-2.6-7-3.4-9.1-3.6h0c-8.3-2-19.7-0.8-29.7,14.6
			c0.2-0.2,1.9-1.9,4.7-4c-1.5,1.6-2.9,3.5-4.3,5.7c0.6-0.6,10.5-10.9,27.4-12.9l0.1-1.8c0,0,0.9-0.1,2.3,0h0c1.7,0.4,3.3,1,4.8,1.5
			c-8.9,0-22.3,5.4-31,18.7c1,1.5,3,1.4,5.7,0.3l3.8,2.2c-0.4,0.3-0.8,0.7-1.2,1.2c-2.7,2.9-8.6,10.1-10.4,19l-12.5,4.4l1.8,1.2
			l-1.4,0.5l8.3,5.3l-2.1,1.9c0,0-8,4.6-6.7,6.7l0.7,0.1c-0.4,0.6-0.5,1.1-0.3,1.6l28.5,2.6c0.2,0.9,0.3,1.5,0.3,1.5
			c0.1,0,0.1,0,0.2,0c0.2,1,0.3,1.6,0.3,1.6c2.2,0.6,4.5,1.4,6.5,2.1c1.9,2.2,5.9,6.7,10,11c0,0,0,0,0,0l14.3,22.8l-1-0.5
			c-5.7,2.5-8.9,4.6-10.6,6.4c-8,4.6-1.1,5.1-1.1,5.1c1.9-3.2,10.3-5.9,15-7.2l1.5,2.4c-8.1,8.3-39.1,40.5-32.6,54.6c0,0,0,0,0,0
			c0.2,0.7,0.4,1.3,0.7,1.9C32.9,267.3,23.9,253,23.9,253S7.7,222.9,5.3,140.6c-0.4-14.1,22.1-40.1,22.1-40.1s1.1-2.5,11.4-5.8
			c1.6-0.5,3.3-1.9,5.4-2.8c1.5-0.7,3-1.3,4.4-2L39.4,96.3z M49.6,228.7l20.2-18.2c0,0-16.5,4.7-18.3,8.4
			C49.8,222.6,49.6,228.7,49.6,228.7z"/>
		<path class="st0" d="M84.3,111.8l2.9-1C86.3,111.4,85.2,111.9,84.3,111.8z"/>
		<path class="st0" d="M86.6,159.6c0,0.1-0.1,0.3-0.2,0.4c-0.2-0.4-0.5-1-0.8-1.5c0-0.1,0-0.1,0-0.2
			C86.2,159.1,86.6,159.6,86.6,159.6z"/>
		<path class="st0" d="M87.1,89.6c-1.4,5.1-0.8,10.8,0.5,15.7C86.2,100.5,85.4,94.9,87.1,89.6z"/>
		<path class="st0" d="M86.4,160c-0.2,0.6-0.5,1.2-0.8,1.8c-0.1-0.2-0.1-0.4-0.2-0.7c0-0.9,0-1.8,0.2-2.7
			C85.9,159.1,86.2,159.6,86.4,160z"/>
		<path class="st7" d="M86,217.2h-0.2h-3.2h-1c0,0-0.7,0.7-1.8,1.8c-7.9,8-38.3,40.2-34.8,55.4c-6.5-14.1,24.5-46.3,32.6-54.6
			l-1.5-2.4c1.7-0.5,2.9-0.8,3.1-0.8c0,0,0,0,0,0c0,0,0,0,0,0C80,216.8,85.1,217,86,217.2z"/>
		<path class="st0" d="M85.8,164.2C85.8,164.3,85.8,164.3,85.8,164.2C85.8,164.3,85.8,164.3,85.8,164.2
			C85.8,164.2,85.8,164.2,85.8,164.2z"/>
		<path class="st0" d="M85.8,217.2L85.8,217.2c-1.2,0.2-2.3,0.2-3.3,0.1l0,0c0,0,0.1-0.1,0.1-0.1H85.8z"/>
		<path class="st0" d="M85.8,164.2C85.8,164.2,85.8,164.2,85.8,164.2c-0.2-0.4-0.4-0.9-0.6-1.3c0.1-0.2,0.2-0.5,0.3-0.7
			C85.6,162.9,85.7,163.6,85.8,164.2z"/>
		<path class="st0" d="M85.7,161.9c0,0.1-0.1,0.2-0.1,0.3c0-0.3,0-0.6,0-1C85.5,161.4,85.6,161.7,85.7,161.9z"/>
		<path class="st0" d="M85.7,158.3c0,0.1,0,0.1,0,0.2c-0.2-0.3-0.3-0.6-0.5-0.9C85.4,157.8,85.5,158.1,85.7,158.3z"/>
		<path class="st7" d="M85.2,157.6c0.2,0.3,0.3,0.6,0.5,0.9c-0.1,0.9-0.2,1.8-0.2,2.7c-0.5-1.9-1-3.8-1.5-5.5
			C84.4,156.4,84.8,157,85.2,157.6C85.2,157.5,85.2,157.6,85.2,157.6z"/>
		<path class="st0" d="M85.5,161.2c0,0.3,0,0.7,0,1c-0.1,0.2-0.2,0.5-0.3,0.7c-1-2.6-1.4-5.6-1.8-8.2c0.2,0.3,0.4,0.7,0.6,1
			C84.5,157.4,85,159.3,85.5,161.2z"/>
		<path class="st1" d="M82.5,217.3c1,0.1,2.1,0.1,3.3-0.1c-28.2,22.2-35.8,60.9-36.2,63.1c-0.4-0.2-0.8-0.4-1.1-0.7
			c-1.2-0.8-2-1.8-2.6-3c0.7,0.5,1.3,0.9,2,1.3c-1.1-0.8-2-1.8-2.6-2.8C40.8,260.2,72,227.1,80,219C80.6,218.6,81.5,218,82.5,217.3z
			"/>
		<path class="st7" d="M84.2,111.7C84.3,111.7,84.3,111.7,84.2,111.7c-0.2,0-0.5-0.1-0.7-0.2c-3.7-1.1-0.8,3.9-5.1-1.9L84.2,111.7z"
			/>
		<path class="st0" d="M85.2,157.5c-0.3-0.5-0.7-1.1-1.2-1.8c-0.2-0.7-0.4-1.3-0.6-1.9C84,155.1,84.6,156.4,85.2,157.5z"/>
		<path class="st6" d="M54.4,182c-0.2-0.1-1-0.5-2.1-0.9C53.6,181.6,54.3,181.9,54.4,182z M83.4,154.7c0.5,2.6,0.8,5.6,1.8,8.2
			c-6.4,13.2-22.6,25.7-25.4,27.7L49.7,180c0.9,0.3,1.7,0.6,2.4,0.9l-3.8-2.4l0,0l-1.8-1.2c2,0.7,3.8,1.4,5.2,2l-9.5-6.1
			c-0.5-2.5-1.2-5.6-1.8-7.5c0-0.1,0-0.1,0-0.2c-0.8-2.9-1.5-4.7-1.8-2.8c-0.7,4-5.7-4.2-7.4-6.9c0.2-3.4,1.3-17.1,5.7-22.8
			c-0.8,0.9-2,2.2-3.2,3.8c0.7-2.1,1.6-4.1,2.8-5.5c0.6-0.6,1-1,1.2-1.2l-3.8-2.2c7.2-2.9,19.4-12.1,31.6-13.6l-2-3.4
			c2.2,1.6,4.5,3.9,6.6,7.1c2.9,4.5,4.8,8.7,6,12.4c0,0.1,0.1,0.2,0.1,0.3c2.2,8.3,1.1,14.1,2.2,15.2c0.1,1.2,0.3,1.9,0.9,1.9
			c0.1,0,0.3,0.1,0.4,0.2C80.6,150.2,82.1,152.7,83.4,154.7z M53.9,180.3C53.9,180.3,53.9,180.3,53.9,180.3
			C53.9,180.3,53.9,180.3,53.9,180.3L53.9,180.3L53.9,180.3c-0.2-0.1-0.7-0.3-1.3-0.6c-0.1,0-0.2-0.1-0.2-0.1c0,0,0,0,0,0
			c0,0,0,0-0.1,0c0,0,0,0,0,0c0.2,0.1,0.3,0.2,0.5,0.2c0.2,0.1,0.3,0.1,0.4,0.2C53.5,180.1,53.7,180.2,53.9,180.3
			C53.9,180.3,53.9,180.3,53.9,180.3z"/>
		<path class="st0" d="M84,155.7c-0.2-0.3-0.4-0.6-0.6-1c-0.1-0.6-0.2-1.1-0.3-1.6c0.1,0.2,0.2,0.4,0.3,0.7
			C83.6,154.4,83.8,155,84,155.7z"/>
		<path class="st0" d="M83.4,153.8c-0.1-0.2-0.2-0.4-0.3-0.7v0c0-0.2-0.1-0.3-0.1-0.5C83.1,153,83.2,153.4,83.4,153.8z"/>
		<path class="st8" d="M82.8,216.5l-3.6,0c0,0,0,0,0,0c0,0,0,0,0,0l0,0l-5.4-2.9l-14.3-22.8c0.1,0.1,0.1,0.1,0.2,0.2
			c2,3.1,4.1,4.3,5,4.8c0,0,0,0,0,0c0.4,0.4,0.8,0.7,1.2,1.1l0.1,0.1c1,1.3,2.9,3.8,4.9,7.4c0.6,1.1,2.4,5.1,3.4,5.9L82.8,216.5z"/>
		<path class="st0" d="M82.6,217.2c0,0-0.1,0.1-0.1,0.1l0,0c0,0-0.1,0-0.2,0c-0.2,0-0.5,0-0.7-0.1H82.6z"/>
		<path class="st0" d="M82.4,217.3c0,0,0.1,0,0.2,0c-1,0.7-1.9,1.3-2.5,1.7c-8,8.1-39.2,41.2-34.7,56.1c-0.1-0.2-0.2-0.4-0.3-0.7
			c0,0,0,0,0,0C41.5,259.2,72,227,79.8,219c1.2-1.2,1.8-1.8,1.8-1.8C81.9,217.2,82.1,217.2,82.4,217.3z"/>
		<path class="st0" d="M82.2,151.3c-0.1-0.1-0.2-0.2-0.3-0.3c-0.4-0.5-0.7-1-1.1-1.4c0,0,0,0,0-0.1c-1-1.4-1.9-3.4-2.1-7.2
			c0,0.1,0,0.1,0.1,0.2C79.2,144.3,80.6,147.8,82.2,151.3z"/>
		<path class="st0" d="M80.9,149.5c0.3,0.4,0.7,0.9,1.1,1.4C81.6,150.5,81.2,150.1,80.9,149.5z"/>
		<path class="st7" d="M78.7,142.3c0.2,3.9,1.1,5.8,2.1,7.2c-0.6-0.7-1-1.1-1.4-1.4c-0.3-0.7-0.7-1.3-0.9-1.8c0.3,0-0.3-0.8-0.5-0.9
			c-0.2-2.9-0.1-8-2.1-14.5c0-0.1,0-0.2-0.1-0.3c-1.1-4.1-3-8.9-6.4-14.1c-0.1-0.1-0.2-0.3-0.3-0.4c3.1,4.1,5.6,9.4,6.2,10.7
			c0,0,0,0,0,0c0.8,3.1,2.6,10.4,2.9,13.4C78.3,140.7,78.5,141.4,78.7,142.3z"/>
		<path class="st5" d="M79.4,148.1c-0.2-0.1-0.3-0.2-0.4-0.2c-0.6,0-0.8-0.7-0.9-1.9c0.1,0.1,0.3,0.2,0.5,0.2
			C78.8,146.9,79.1,147.5,79.4,148.1z"/>
		<path class="st0" d="M79.2,216.5L79.2,216.5c-0.2,0.1-1.4,0.4-3.1,0.8l-0.5-0.8H79.2z"/>
		<path class="st7" d="M79.2,216.5h-3.7L74,214C75.5,215.1,77.2,215.9,79.2,216.5z"/>
		<path class="st0" d="M73.7,213.7l5.4,2.9c-2-0.6-3.7-1.5-5.2-2.5L73.7,213.7z"/>
		<path class="st0" d="M78.8,142.5c0-0.1,0-0.1-0.1-0.2c0-0.1,0-0.3,0-0.4C78.7,142,78.8,142.2,78.8,142.5z"/>
		<path class="st0" d="M78.7,141.9c0,0.1,0,0.3,0,0.4c-0.3-0.8-0.5-1.5-0.5-2c-0.3-3-2.1-10.3-2.9-13.4c0.1,0.2,0.1,0.3,0.1,0.3
			s0,0.1,0.1,0.3C76,129.1,78.4,138.4,78.7,141.9z"/>
		<path class="st0" d="M78,145.4c0.2,0.1,0.8,0.9,0.5,0.9c-0.3-0.4-0.4-0.6-0.5-0.8C78,145.5,78,145.4,78,145.4z"/>
		<path class="st0" d="M78.5,146.3c-0.2,0-0.3-0.1-0.5-0.2c0-0.2,0-0.4,0-0.6C78.1,145.6,78.3,145.9,78.5,146.3z"/>
		<path class="st0" d="M78,145.4c0,0,0,0.1,0,0.1C78,145.4,78,145.3,78,145.4z"/>
		<path class="st0" d="M75.5,127.3c0.5,1.7,3,11.1,3.2,14.5C78.4,138.4,76,129.1,75.5,127.3z"/>
		<path class="st8" d="M75.5,216.5l0.5,0.8c-4.7,1.3-13.1,4-15,7.2c0,0-2.2-1.8,1.1-5.1c1.5-0.8,3.4-1.8,6-2.9H75.5z"/>
		<path class="st8" d="M74,214l1.6,2.5h-7.4c-2.6,1.1-4.5,2.1-6,2.9c1.7-1.7,4.9-3.8,10.6-6.4C73.1,213.5,73.5,213.8,74,214z"/>
		<path class="st7" d="M73.7,213.7L74,214c-0.4-0.3-0.9-0.6-1.3-0.9L73.7,213.7z"/>
		<path class="st0" d="M75.8,130.6c-1.2-3.8-3-7.9-6-12.4c-2.1-3.2-4.4-5.5-6.6-7.1c0.5,0.3,0.9,0.5,1.3,0.7
			c1.6,0.9,3.1,2.4,4.5,4.3c0,0,0,0,0.1,0.1c0.1,0.1,0.2,0.3,0.3,0.4C72.8,121.6,74.7,126.4,75.8,130.6z"/>
		<path class="st8" d="M69.8,210.4l-20.2,18.2c0,0,0.2-6.1,1.9-9.8C53.2,215.1,69.8,210.4,69.8,210.4z"/>
		<path class="st0" d="M66,197L66,197c-0.4-0.3-0.8-0.7-1.2-1c0.2,0.1,0.3,0.1,0.3,0.2h0L66,197z"/>
		<path class="st7" d="M63.3,111.1l2,3.4C53,115.9,40.8,125.1,33.6,128c-2.7,1.1-4.7,1.2-5.7-0.3c8.7-13.3,22.1-18.7,31-18.7
			C60.6,109.7,62.1,110.4,63.3,111.1C63.2,111,63.3,111.1,63.3,111.1z"/>
		<path class="st0" d="M60.1,190.9l5,5.2c-0.1,0-0.2-0.1-0.3-0.2c0,0,0,0,0,0c-1.6-1.4-3.4-3.1-5-4.8
			C59.7,191.1,59.8,191,60.1,190.9z"/>
		<path class="st0" d="M69.1,116c-1.4-1.8-2.9-3.4-4.5-4.3c-0.4-0.2-0.8-0.4-1.3-0.7c0,0,0,0,0,0c-0.3-0.3-1.7-1.7-0.4-1.6
			C64.9,110.9,67,113,69.1,116z"/>
		<path class="st5" d="M62.8,109.4c-1.3-0.1,0.2,1.3,0.4,1.6c-1.2-0.8-2.3-1.5-3.4-2C60.9,109.1,61.9,109.2,62.8,109.4z"/>
		<path class="st7" d="M61.6,82.8c0.2,0.2,0.3,0.5,0.6,0.7c-10.2,5.7-21,11.8-22.8,12.8l9.2-6.4C55.9,86.4,61.6,82.8,61.6,82.8z"/>
		<path class="st7" d="M62.1,219.5c-3.3,3.3-1.1,5.1-1.1,5.1S54.1,224.1,62.1,219.5z"/>
		<path class="st0" d="M59.8,190.6l0.2,0.3c-0.3,0.2-0.4,0.3-0.4,0.3c-0.1-0.1-0.1-0.2-0.2-0.2c0,0,0,0,0,0
			C59.5,190.9,59.6,190.8,59.8,190.6z"/>
		<path class="st5" d="M59.8,109c1.1,0.5,2.2,1.1,3.4,2c-1.1-0.6-2.6-1.3-4.3-2C59.2,109,59.5,109,59.8,109z"/>
		<path class="st7" d="M62.8,109.4c-0.9-0.2-1.9-0.3-3-0.4c-2.2-1-4.2-1.4-5.7-1.6h0c-0.9-0.2-1.8-0.4-2.8-0.5l0-1.1
			c0,0,0.9-0.1,2.3,0h0C57.5,106.7,60.7,108.3,62.8,109.4z"/>
		<path class="st0" d="M49.7,180l10.2,10.6c-0.3,0.2-0.4,0.3-0.4,0.3c-4.2-4.3-8.1-8.8-10-11C49.5,179.9,49.6,179.9,49.7,180z"/>
		<path class="st7" d="M59.8,109c-0.3,0-0.6,0-0.9,0c-1.4-0.6-3-1.1-4.8-1.5C55.6,107.6,57.6,108,59.8,109z"/>
		<path class="st7" d="M54.1,107.5c-1.4-0.1-2.3,0-2.3,0l-0.1,1.8c-16.9,2-26.8,12.2-27.4,12.9c1.4-2.1,2.8-4,4.3-5.7
			c4.6-3.3,12.3-7.6,22.6-8.9l0-0.6C52.3,107.1,53.2,107.3,54.1,107.5z"/>
		<path class="st7" d="M53.7,105.8c-1.4-0.1-2.3,0-2.3,0l0,1.1c-6.7-0.9-14.9,0.7-22.6,9.5c-2.9,2.1-4.5,3.8-4.7,4
			C33.9,105.1,45.3,103.9,53.7,105.8z"/>
		<path class="st0" d="M54.4,182c-0.2-0.1-0.8-0.3-2.1-0.9C53.5,181.5,54.3,181.9,54.4,182z"/>
		<path class="st0" d="M48.3,178.5l3.8,2.4c-0.7-0.3-1.5-0.6-2.4-0.9l-1.3-1.4L48.3,178.5z"/>
		<path class="st7" d="M51.3,107l0,0.6c-10.3,1.2-18.1,5.6-22.6,8.9C36.4,107.7,44.6,106.1,51.3,107z"/>
		<path class="st0" d="M49.7,180c-0.1,0-0.2-0.1-0.2-0.1c-0.5-0.6-0.9-1.1-1.1-1.3L49.7,180z"/>
		<path class="st0" d="M49.6,280.3C49.6,280.3,49.6,280.3,49.6,280.3c-0.5-0.2-0.9-0.4-1.3-0.7c-1.2-0.9-2.1-2-2.7-3.2
			c0.1,0.1,0.2,0.1,0.3,0.2c0.6,1.1,1.5,2.1,2.6,3C48.9,279.8,49.2,280,49.6,280.3z"/>
		<path class="st7" d="M48.3,178.6c0.2,0.2,0.5,0.7,1.1,1.3c-2-0.7-4.3-1.5-6.5-2.1c0,0-0.1-0.6-0.3-1.6c1.3,0.3,2.6,0.8,3.8,1.2
			l1.8,1.2l0,0L48.3,178.6z"/>
		<path class="st0" d="M47.9,277.9c-0.7-0.4-1.3-0.9-2-1.3c-0.2-0.5-0.4-1-0.6-1.5C45.9,276.2,46.8,277.1,47.9,277.9z"/>
		<path class="st0" d="M42.3,174.7l4.1,2.6c-1.2-0.4-2.5-0.8-3.8-1.2C42.5,175.7,42.4,175.3,42.3,174.7z"/>
		<path class="st0" d="M45.9,276.6c-0.1-0.1-0.2-0.1-0.3-0.2c-0.3-0.6-0.5-1.3-0.7-1.9c0.1,0.2,0.2,0.4,0.3,0.7
			C45.5,275.6,45.7,276.1,45.9,276.6z"/>
		<path class="st0" d="M42.3,174.7C42.3,174.7,42.3,174.7,42.3,174.7l-0.1,0L42.3,174.7z"/>
		<path class="st0" d="M42.3,174.7l-0.1,0h0c0,0,0,0,0,0c0,0,0,0,0,0C42.3,174.6,42.3,174.7,42.3,174.7z"/>
		<path class="st0" d="M42.3,174.7c0,0,0,0-0.2-0.1c-0.1-0.4-0.2-0.9-0.3-1.5l0.2,0.1C42.1,173.7,42.2,174.2,42.3,174.7z"/>
		<path class="st7" d="M42.2,174.6C42.2,174.6,42.2,174.6,42.2,174.6L13.7,172c-0.3-0.4-0.1-1,0.3-1.6l24.5,2.2
			c1.6,0.8,2.8,1.5,3.5,1.8L42.2,174.6z"/>
		<path class="st0" d="M42.2,174.6C42.2,174.6,42.2,174.6,42.2,174.6l-0.2-0.1C42,174.5,42.1,174.6,42.2,174.6z"/>
		<path class="st0" d="M42.2,174.6c-0.1,0-0.1-0.1-0.2-0.1l-2.7-1.7l2.5,0.2l0.1,0.1C42,173.6,42.1,174.2,42.2,174.6z"/>
		<path class="st0" d="M42,173.2l-0.2-0.1c0,0,0,0,0-0.1c-0.4-2.2-1.1-5.1-1.7-7.3C40.8,167.6,41.5,170.6,42,173.2z"/>
		<path class="st0" d="M39.3,172.8l2.7,1.7c-0.6-0.3-1.9-0.9-3.5-1.8L39.3,172.8z"/>
		<path class="st7" d="M41.9,173C41.9,173,41.9,173.1,41.9,173l-0.1,0l-2.5-0.2l-9.8-6.2c-0.5-0.6-1-1.1-1.3-1.7
			c-2.4-4.4-2.4-4.4-2.4-4.4l-2.4,2.1l-1.3-0.8l0.9-0.8l-7.8-5l11.2-3.9c1.2-6.1,4.5-11.5,7.2-15.1c-2.6,7.6-3,18-3,18
			s0.2,0.3,0.5,0.9c0,0.5,0,0.8,0,0.8s7.1,12.5,7.9,7.8c0.3-1.5,0.8-0.7,1.3,1.1c0,0,0,0.1,0,0.2C40.8,168,41.4,170.8,41.9,173z"/>
		<path class="st0" d="M39.3,172.8l-0.8-0.1c-2.9-1.6-6.8-3.9-9-6.2L39.3,172.8z"/>
		<path class="st5" d="M40.1,165.5c-0.6-1.8-1.1-2.6-1.3-1.1c-0.8,4.7-7.9-7.8-7.9-7.8s0-0.3,0-0.8c1.6,2.8,6.7,10.9,7.4,6.9
			C38.7,160.8,39.4,162.7,40.1,165.5z"/>
		<path class="st7" d="M38.5,172.7L14,170.4c1.5-2.2,6.4-5.1,6.4-5.1l3-2.7l6.1,3.9C31.7,168.8,35.6,171.1,38.5,172.7z"/>
		<path class="st7" d="M33.5,136.9c1.3-1.6,2.4-3,3.2-3.8c-4.4,5.6-5.5,19.3-5.7,22.8c-0.3-0.5-0.5-0.9-0.5-0.9
			S30.9,144.6,33.5,136.9z"/>
		<path class="st7" d="M36.2,131.4c-1.1,1.4-2,3.3-2.8,5.5c-2.7,3.7-6,9-7.2,15.1L15.1,156l-1.8-1.2l12.5-4.4
			C27.6,141.5,33.6,134.3,36.2,131.4z"/>
		<path class="st7" d="M29.5,166.5l-6.1-3.9l2.4-2.1c0,0,0,0,2.4,4.4C28.5,165.4,29,166,29.5,166.5z"/>
		<path class="st7" d="M23.4,162.6l-3,2.7c0,0-5,2.9-6.4,5.1l-0.7-0.1c-1.3-2.1,6.7-6.7,6.7-6.7l2.1-1.9L23.4,162.6z"/>
		<polygon class="st7" points="22.9,161 22,161.8 13.7,156.5 15.1,156 		"/>
	</g>
	<g>
		<path class="st9" d="M28.7,116.5c7.7-8.8,15.9-10.4,22.6-9.5"/>
		<path class="st9" d="M78.8,142.5c0.4,1.9,1.8,5.3,3.4,8.8"/>
		<path class="st9" d="M118.4,204l2.2-1.1c0,0,0.1,0,0.1,0c0.5-0.3,1.1-0.6,1.6-0.9c2.1-1.1,4.1-2.3,6-3.3c1.3-0.5,2.6-1,3.8-1.5
			c0.3-0.1,0.6-0.3,0.9-0.4l0,0"/>
		<path class="st9" d="M100.2,212.8c1.1-0.5,2.3-1,3.5-1.5c0,0,0,0,0,0c0,0,0,0,0,0l1.6-0.8"/>
		<path class="st9" d="M85.8,217.2H86l0,0c1.1-0.1,2.3-0.4,3.5-0.7c3.2-0.8,6.8-2.1,10.6-3.7"/>
		<path class="st9" d="M83.2,284.7c-4,0.2-9.2,0.5-15.8,0.8c-6.2,0.3-12.2-1.8-17.6-5.2c0,0-0.1-0.1-0.2-0.1"/>
		<path class="st9" d="M173,236c-1.1-3.9-0.7-5.9-0.2-6.8c-1.1,1.4-3.1,3.1-5.8,4.9c-0.9,0.7-1.9,1.3-3,2
			c-8.2,5.2-19.8,11.3-27.1,15.6c-7.7,4.6-24,17.9-33.6,25.9"/>
		<path class="st9" d="M200.3,284l-3.1-2l5.6-7.9h-3.6H195c0,0,4.5-6.8,0-6.8s-17.4-20.6-20.1-26.4c-0.9-1.9-1.5-3.4-1.9-4.8
			c0,0,0-0.1,0-0.1"/>
		<path class="st9" d="M213.1,285.5c-2,2.8-3.4,4.4-3.4,4.4l-9.3-5.9l-0.1,0"/>
		<path class="st9" d="M222.7,273.1c-1.4,0.9-2.7,2-3.7,3.5"/>
		<path class="st9" d="M170,179c0.6-0.1,1.3-0.2,1.9-0.3c4.8-0.7,9.4,0,12.8,3.3c6.7,6.2,47,82.8,47,82.8c0,0.2,0,0.3,0,0.3
			c0,0,0.1-1.2,0-0.3c0,0.1,0,0.2,0,0.2"/>
		<path class="st9" d="M163.4,181.6L163.4,181.6C163.4,181.6,163.4,181.5,163.4,181.6c0-0.2,0.1-0.4,0.1-0.6
			c1.1-0.5,2.3-0.8,3.4-1.2c1-0.3,2.1-0.6,3.1-0.8"/>
		<path class="st9" d="M279.1,285c0,0,3.7,15.8-19.3,9.9c-19.3-5-33.5,5.9-41.7,1.4c-7.4-4-6.4-8.3-5.1-10.8
			c0.3-0.5,0.5-0.9,0.7-1.3c1.3-2.1,4.7-7.2,4.7-7.2l0.4-0.4l3.7-3.5l8.9-8.3c0,0,0,0.1,0.1,0.2c0,0,0,0,0.1,0.1
			c1,1.6,5.8,9.3,11.9,9.3c6.8,0,22.6,10,25.9,12.3c2.1,1.4,5.4,0.3,7.5-0.7"/>
		<path class="st10" d="M269.5,286.7c0,0,7.2-4.7,9.6-1.8c0,0,0,0,0,0c-0.2,0.1-0.9,0.6-2,1.1C275.4,286.8,272.8,287.4,269.5,286.7z
			"/>
		<path class="st9" d="M62.1,83.5c8.3-4.7,16.2-9.2,18.3-10.5c0,0,4.7-3.5,7.6-10.2"/>
		<path class="st9" d="M89,62.2l-0.9,0.6c0.1-0.1,0.1-0.3,0.2-0.5"/>
		<path class="st9" d="M87.3,89.1c1-3.2,2.8-6.1,5.9-8.3"/>
		<path class="st9" d="M89,109.4c-0.2-0.5-0.4-1-0.5-1.5c-0.3-0.8-0.5-1.6-0.7-2.4"/>
		<path class="st9" d="M92.9,116.4c0,0-0.1-0.1-0.1-0.2c-0.7-0.9-2.5-3.6-3.6-6.6"/>
		<path class="st9" d="M91.9,114.8c0.2,0.4,0.5,0.8,0.6,1.1"/>
		<path class="st9" d="M99.2,76.4c2.3-1.6,2.3-1.7,2.3-1.7s-13.2,0.1-5.8-5.9c4.9-3.9,12.5-7.3,16.1-6.1"/>
		<path class="st9" d="M144.3,92.8c-4.7,3.4-10.3,8.8-12.8,7.9c-3.4-1.2-4.9,1.4-4.9,1.4s-0.5,4.1-6.8,9.6c-2.7,2.4-6-5-6-5
			s-0.9,0.6-2.3,1.5"/>
		<polyline class="st9" points="84.3,111.8 87.2,110.7 88.6,110.2 89.1,109.6 89.2,109.4 		"/>
		<path class="st9" d="M84.3,111.7C84.3,111.8,84.3,111.8,84.3,111.7"/>
		<path class="st9" d="M89.2,109.3c0,0-0.1,0.1-0.1,0.1c-0.5,0.4-1.1,0.9-1.8,1.3c-1,0.7-2.1,1.1-2.9,1"/>
		<path class="st9" d="M105.1,75.2c4-2.5,11.6-7.8,6.7-12.4"/>
		<path class="st9" d="M118.4,44.7c0.7-0.2,10.2-2.3,18.8,1.9c6.7,3.3,11.3,10.2,11.3,10.2s-2.9,2.8-2.9,3.5c0,0,0,0.1,0,0.1
			c0.3,0.3,3.1-2.3,3.1-2.3c0.5,0.3,0.9,0.9,1.4,1.6c2.9,4.5,7.8,14.6,7.8,14.6l-8,0.1c1,0,8.1,0.1,8.7,3.4
			c0.6,3.6,1.1,14.7,1.1,14.7c-3.8,1.1-15.9,1.4-15.5,0.2"/>
		<path class="st9" d="M42,173.2c0.1,0.5,0.2,1,0.3,1.5c0,0,0,0,0,0.1l-0.1-0.1"/>
		<path class="st9" d="M31,155.8c0,0.5,0,0.8,0,0.8s7.1,12.5,7.9,7.8c0.3-1.5,0.8-0.7,1.3,1.1"/>
		<path class="st9" d="M15.1,156l11.2-3.9c1.2-6.1,4.5-11.5,7.2-15.1"/>
		<line class="st9" x1="23.4" y1="162.6" x2="22" y2="161.8"/>
		<line class="st9" x1="39.3" y1="172.8" x2="29.5" y2="166.5"/>
		<path class="st9" d="M42.6,176.2c-0.1-0.4-0.2-0.9-0.3-1.4l4.1,2.6"/>
		<polyline class="st9" points="120.6,202.8 122.4,201.9 132.2,197 133,196.7 133,196.6 		"/>
		<polyline class="st9" points="109.4,222.5 104.9,211.4 103.7,211.3 103.6,211.3 		"/>
		<path class="st9" d="M109.4,222.5c-0.7,0.7,0.1,0.3,0.1,0.3L109.4,222.5z"/>
		<path class="st9" d="M163.2,181.6l0.2-0.1l6.6-2.5c0,0,0,0,0,0l1.7-0.7c0,0,0.1,0.1,0.2,0.3c0.4,0.8,1.3,2.8-0.2,1.8
			c0,0-0.4,6.8,2.2,9.8c2.6,3,4.1,5.2,4.1,5.2s-65.5,24.2-67.7,26.1c-0.5,0.4-0.8,0.7-1,0.9"/>
		<path class="st9" d="M163.3,181c0,0.2-0.1,0.4-0.1,0.5v0"/>
		<path class="st9" d="M85.7,161.9c0.2,0.6,0.3,1.1,0.5,1.7c0.7,2.5,1.5,4.8,2.3,6.4c2.9,5.2,5.5,12.4,5.5,14.3
			c0.7-0.2,14.6-5.2,19.1-4.6c4.6,0.7,15-0.7,15-0.7s6.3-5,11.8-2c5.5,3.1,5.8,9.9,5.8,9.9c-1.8,1.3-3.3,3.2-3.3,3.2
			s-5.9,3.7-14.1,8.4c-2.4,1.3-4.9,2.8-7.6,4.2c0,0-0.1,0-0.1,0"/>
		<path class="st9" d="M83.1,153.1c-0.3-0.6-0.6-1.2-0.9-1.9c0.3,0.3,0.5,0.8,0.8,1.4"/>
		<path class="st9" d="M60.1,190.9c2.8-1.9,19.4-13.4,25.7-26.6c0,0,0,0,0,0c0.1-0.2,0.2-0.5,0.3-0.7c0.4-0.8,0.7-1.5,0.9-2.3
			c0,0-0.2-0.5-0.6-1.2"/>
		<path class="st9" d="M64.7,195.9c-1-0.5-3.1-1.7-5-4.8"/>
		<path class="st9" d="M66,197c-0.5-0.5-0.7-0.8-0.7-0.8s0,0-0.1,0"/>
		<path class="st9" d="M79.2,216.6l3.6,0l-8.4-6.1c-1.1-0.8-2.8-4.8-3.4-5.9c-2-3.6-3.9-6.2-4.9-7.4"/>
		<path class="st9" d="M103.6,211.3c-1.2,0.5-2.3,1-3.3,1.5c0,0-0.1,0-0.1,0c-4.3,2-7,3.1-10.6,3.7c-0.1,0-0.2,0-0.4,0l-3.1,0.6
			c-0.8-0.2-6-0.4-6.7-0.6"/>
		<path class="st9" d="M73.7,213.7l5.4,2.9c-2-0.6-3.7-1.5-5.2-2.5"/>
		<path class="st9" d="M120.5,202.9c-0.7,0.4-1.4,0.7-2.1,1.1c0,0,0,0,0,0c-4.3,2.3-8.7,4.5-13.1,6.5c-0.6,0.2-1.1,0.5-1.6,0.7"/>
		<path class="st9" d="M14,170.4l-0.7-0.1c-1.3-2.1,6.7-6.7,6.7-6.7l2.1-1.9l0.9-0.8l-7.8-5l-1.8-1.2l12.5-4.4
			c1.8-8.9,7.8-16.1,10.4-19c0.4-0.5,0.8-0.9,1.2-1.2c-0.2,0.2-0.6,0.6-1.2,1.2c-1.1,1.4-2,3.3-2.8,5.5c-2.6,7.6-3,18-3,18
			s0.2,0.3,0.5,0.9c1.6,2.8,6.7,10.9,7.4,6.9c0.3-1.9,1.1-0.1,1.8,2.8c0,0,0,0.1,0,0.2c0.6,2.3,1.2,5.2,1.7,7.3c0,0,0,0,0,0.1
			l0.2,0.1l9.5,6.1c-1.4-0.6-3.2-1.3-5.2-2c-1.2-0.4-2.5-0.8-3.8-1.2c-0.1,0-0.1,0-0.2,0c0,0-0.1-0.6-0.3-1.5"/>
		<path class="st9" d="M42.2,174.6c-0.1-0.4-0.2-0.9-0.3-1.5l-0.1-0.1l-2.5-0.2l-0.8-0.1"/>
		<path class="st9" d="M53.9,180.3c-0.1,0-0.3-0.2-0.7-0.3c-0.1,0-0.2-0.1-0.4-0.2c-0.2-0.1-0.3-0.1-0.5-0.2c0,0,0,0,0,0
			c0,0,0,0,0.1,0c0,0,0,0,0,0c0.1,0,0.2,0.1,0.2,0.1C53.2,179.9,53.6,180.2,53.9,180.3L53.9,180.3z"/>
		<path class="st9" d="M53.9,180.3L53.9,180.3c0.1,0,0.1,0,0.1,0C53.9,180.3,53.9,180.3,53.9,180.3
			C53.9,180.3,53.9,180.3,53.9,180.3z"/>
		<path class="st9" d="M45,274.4c-6.5-14.1,24.5-46.3,32.6-54.6"/>
		<path class="st9" d="M83.1,153.1c0.1,0.5,0.2,1,0.3,1.6c0.5,2.6,0.8,5.6,1.8,8.2c0.2,0.5,0.4,0.9,0.6,1.3c0,0,0,0,0,0c0,0,0,0,0,0
			c-0.2-0.7-0.2-1.3-0.3-2.1c0-0.3,0-0.6,0-1c0-0.9,0-1.8,0.2-2.7c0-0.1,0-0.1,0-0.2c0.4-3.8,1.4-7.7,1.6-10.4
			c1.1-13.5-1.6-33.6-1.6-33.6s-0.5-1-1.5-2.5c0,0,0,0,0,0c-0.3-0.5-0.8-1.1-1.2-1.8C80.6,106,67,90,62.1,83.5
			c-0.2-0.3-0.4-0.5-0.6-0.7c0,0-5.7,3.6-12.9,7.1c-1.4,0.7-2.9,1.4-4.4,2c-2,0.9-3.7,2.2-5.4,2.8c-10.3,3.3-11.4,5.8-11.4,5.8
			s-22.5,26-22.1,40.1C7.7,222.9,23.9,253,23.9,253s9,14.2,21.8,23.4"/>
		<path class="st9" d="M78.7,142.3c0,0.1,0,0.1,0.1,0.2c0.7,1.9,1.8,4.6,2.9,7.2c0.6,0.8,0.9,1.8,1.2,3c0,0.2,0.1,0.3,0.1,0.5"/>
		<path class="st9" d="M69.1,116c-2-3-4.2-5.1-6.3-6.6c-2.1-1.1-5.3-2.7-9.1-3.6c2.1,0.2,5.5,1,9.1,3.6c0.5,0.3,0.9,0.5,1.3,0.7
			c5.6,3.1,10.9,15.3,10.9,15.3s0.1,0.5,0.3,1.3"/>
		<path class="st9" d="M78.1,146.1c-1-1.1,0-6.9-2.2-15.2"/>
		<path class="st9" d="M78,145.5c-0.1-0.1,0-0.2,0-0.1"/>
		<path class="st9" d="M59.8,190.6c2.7-2,18.9-14.5,25.4-27.7c0.1-0.2,0.2-0.5,0.3-0.7c0.1-0.1,0.1-0.2,0.1-0.3
			c0.3-0.6,0.5-1.2,0.8-1.8c0.1-0.1,0.1-0.3,0.2-0.4c0,0-0.3-0.5-0.9-1.3c-0.1-0.2-0.3-0.5-0.5-0.7c0,0,0,0,0,0
			c-0.3-0.5-0.7-1.1-1.2-1.8c-0.2-0.3-0.4-0.6-0.6-1c-1.3-2.1-2.8-4.5-3.9-6.6"/>
		<path class="st9" d="M53.7,105.8c-1.4-0.1-2.3,0-2.3,0l0,1.1l0,0.6c-10.3,1.2-18.1,5.6-22.6,8.9c-2.9,2.1-4.5,3.8-4.7,4
			C33.9,105.1,45.3,103.9,53.7,105.8z"/>
		<path class="st9" d="M62.8,109.4c-1.3-0.1,0.2,1.3,0.4,1.6c0,0,0,0,0,0l2,3.4C53,115.9,40.8,125.1,33.6,128
			c-2.7,1.1-4.7,1.2-5.7-0.3c8.7-13.3,22.1-18.7,31-18.7c0.3,0,0.6,0,0.9,0C60.9,109.1,61.9,109.2,62.8,109.4z"/>
		<path class="st9" d="M80.9,149.5c0.4,0.5,0.7,1,1.1,1.4c0.1,0.1,0.2,0.2,0.3,0.3"/>
		<path class="st9" d="M80.8,149.5c-0.6-0.7-1-1.1-1.4-1.4c-0.2-0.1-0.3-0.2-0.4-0.2c-0.6,0-0.8-0.7-0.9-1.9c0-0.2,0-0.4,0-0.6
			c0,0,0-0.1,0-0.1c-0.2-2.9-0.1-8-2.1-14.5c0-0.1,0-0.2-0.1-0.3c-1.2-3.8-3-7.9-6-12.4c-2.1-3.2-4.4-5.5-6.6-7.1
			c0.5,0.3,0.9,0.5,1.3,0.7c1.6,0.9,3.1,2.4,4.5,4.3c0,0,0,0,0.1,0.1c3.1,4.1,5.6,9.4,6.2,10.7c0,0,0,0,0,0c0.1,0.2,0.1,0.3,0.1,0.3
			s0,0.1,0.1,0.3c0.5,1.7,3,11.1,3.2,14.5c0,0.1,0,0.3,0,0.4C79,146.1,79.9,148.1,80.8,149.5"/>
		<path class="st9" d="M80.8,149.5C80.8,149.5,80.9,149.5,80.8,149.5"/>
		<path class="st9" d="M81.9,150.9c-0.4-0.5-0.7-1-1.1-1.4"/>
		<path class="st9" d="M42.3,174.7l-0.1,0h0L13.7,172c-0.3-0.4-0.1-1,0.3-1.6c1.5-2.2,6.4-5.1,6.4-5.1l3-2.7l2.4-2.1
			c0,0,0,0,2.4,4.4c0.3,0.5,0.8,1.1,1.3,1.7c2.2,2.3,6.1,4.6,9,6.2c1.6,0.8,2.8,1.5,3.5,1.8c0.1,0,0.2,0.1,0.2,0.1
			C42.3,174.6,42.3,174.7,42.3,174.7z"/>
		<path class="st9" d="M45,274.4C41.5,259.2,72,227,79.8,219c1.2-1.2,1.8-1.8,1.8-1.8h1h3.2l0,0c-28.2,22.2-35.8,60.9-36.2,63.1
			c0,0.1,0,0.1,0,0.1c-0.4-0.2-0.9-0.5-1.2-0.8c-1.2-0.9-2.1-2-2.7-3.2C45.4,275.8,45.1,275.1,45,274.4"/>
		<path class="st9" d="M173,228.7c0,0,6.5-12.6,2.9-11.5C172.2,218.3,173,228.7,173,228.7z"/>
		<path class="st9" d="M166.8,217.3C166.8,217.3,166.8,217.3,166.8,217.3c0,0.1-0.2,0.3-0.3,0.7"/>
		<path class="st9" d="M166.5,218c0.1-0.3,0.2-0.5,0.3-0.7"/>
		<path class="st9" d="M166.5,218C166.5,218,166.4,218.1,166.5,218"/>
		<path class="st9" d="M166.8,234.2c0,0-1.3-12.4-0.3-16.1c-1.2,2.9-5.5,13.8-2.7,18.1L166.8,234.2z"/>
		<path class="st9" d="M173,236C173,236,173,236,173,236c0.6-0.5,2.8-2.6,6.5-4.4c4.3-2.2,4.3-7,4.3-7"/>
		<line class="st9" x1="173" y1="236" x2="172.9" y2="236.1"/>
		<path class="st9" d="M199.4,274.1c0.6-0.2,10.9-3.9,16.4-9.3"/>
		<line class="st9" x1="199.4" y1="274.1" x2="199.3" y2="274.1"/>
		<path class="st9" d="M200.3,284C200.3,284,200.3,284,200.3,284c1-0.4,8.9-3.6,11.8-6.5"/>
		<line class="st9" x1="200.3" y1="284" x2="200.2" y2="284"/>
		<path class="st9" d="M79.2,216.6c-0.2,0-1.4,0.3-3.1,0.8c-4.7,1.3-13.1,4-15,7.2c0,0-7-0.5,1.1-5.1c1.5-0.8,3.4-1.8,6-2.9h7.4
			L79.2,216.6L79.2,216.6C79.2,216.6,79.2,216.6,79.2,216.6C79.2,216.6,79.2,216.6,79.2,216.6"/>
		<path class="st9" d="M69.8,210.4l-20.2,18.2c0,0,0.2-6.1,1.9-9.8C53.2,215.1,69.8,210.4,69.8,210.4z"/>
		<path class="st9" d="M64.7,195.9c0.4,0.4,0.8,0.7,1.2,1.1"/>
		<path class="st9" d="M48.3,178.6c0.2,0.2,0.5,0.7,1.1,1.3c1.9,2.2,5.9,6.7,10,11c0,0,0,0,0,0c0.1,0.1,0.1,0.1,0.2,0.2
			c1.7,1.7,3.4,3.4,5,4.8"/>
		<polyline class="st9" points="48.3,178.6 48.3,178.5 48.2,178.5 		"/>
		<line class="st9" x1="65.1" y1="196.1" x2="65.1" y2="196.1"/>
		<line class="st9" x1="66" y1="197.1" x2="66" y2="197"/>
		<path class="st9" d="M124.6,89.1c0.3,0.3,4.6,5.8,4.6,7.1c0,1.4,0,2.7,0,2.7l2.7-2.5C132,96.4,128.1,90.2,124.6,89.1z"/>
		<line class="st9" x1="124.6" y1="89.1" x2="124.6" y2="89.1"/>
		<path class="st9" d="M99.1,76.5C99.1,76.5,99.1,76.4,99.1,76.5c4.9-2.9,6-1.3,6-1.3c5.3-2.5,8.1-6.4,8.1-6.4
			c1.3-3.6,0.5-5.4-1.3-6c-1.1-1-2.7-2-5.2-2.9c-2.6-1-14.6,1.7-17.7,2.4c-0.5,0.1-0.7,0.2-0.7,0.2c0.4-0.8,0.9-1.8,1.6-2.8
			c6.3-8.8,19.4-14.3,28.5-14.8c1.1,0,2.2,0,3.3,0.1c6,0.5,8.7,0.7,10.7,1.8c0.4,0.2,0.7,0.4,1.1,0.6c5.9,3.5,9.5,8.7,11.7,13.4
			c2.3,4.9,3.1,9.3,3.3,10.6c0.1,0.8,0.3,2,0.4,3.5c0.6,5.7,0.9,14.9-2,16.6c-0.2,0.2-0.5,0.2-0.7,0.3c-1.3,0.2,0,0-1.8,1.3
			c0.4-1.1-0.5-4.5-7.6-12c-7.2-7.6-11.2-6-11.2-6s-1.1-5.1-4-6.1c-2.9-1-11.7,13-11.7,13s-9.7,7.9-9.9,11.2s3.9,11.7,3.9,11.7
			s8.5,0.5,8.5,3l-0.5,0.7"/>
		<path class="st9" d="M87.1,89.6c0.1-0.2,0.1-0.4,0.2-0.6c1.1-2.9,2.9-5.8,5.9-8.3"/>
		<path class="st9" d="M89.2,109.3l-0.5-1.3c-0.3-0.8-0.6-1.6-0.9-2.5c0-0.1,0-0.1-0.1-0.2"/>
		<polyline class="st9" points="89,109.5 89.1,109.5 89.1,109.4 		"/>
		<path class="st9" d="M89.1,109.4C89.1,109.5,89.1,109.5,89.1,109.4L89.1,109.4c-0.1,0.2-0.1,0.2-0.1,0.2"/>
		<line class="st9" x1="89.1" y1="109.4" x2="89.2" y2="109.3"/>
		<path class="st9" d="M93,116.6C93,116.6,93,116.5,93,116.6c0-0.1-0.1-0.1-0.1-0.2c0,0,0-0.1-0.1-0.2c-0.1-0.1-0.1-0.2-0.2-0.4
			c-0.2-0.3-0.4-0.6-0.6-1.1c-0.7-1.3-1.7-3.1-2.6-5.3c0-0.1,0-0.1-0.1-0.2"/>
		<path class="st9" d="M87.7,105.3c-1.5-4.7-2.3-10.4-0.5-15.7C85.7,94.7,86.4,100.4,87.7,105.3z"/>
		<path class="st9" d="M93.2,80.8c2.4-2,4.3-3.4,5.9-4.3C97.9,77.4,96,78.8,93.2,80.8z"/>
		<path class="st9" d="M111.5,108.2l-2.1,2.8c0,0-0.4-0.4-1.1-0.8C109.5,109.5,110.6,108.8,111.5,108.2z"/>
		<path class="st9" d="M108.3,110.2c-1,0.6-2.1,1.2-3.2,1.9c1.5,1,0,3.2,0,3.2l-3.6-1.2h0c-3.8,2-7.9,3.6-8.5,2.5l5.1-2.1
			c0,0-4.6-2.3,1.1-4.3C104,108.6,106.8,109.4,108.3,110.2z"/>
		<path class="st9" d="M139.2,274.2l-0.1,0v-4.6c-1.3-1.6-1.3-1.6-1.3-1.6h-9.5l3.7,1.6v4.6l-7.3-3.1v6.5c0,0,1.7,1.1,3.7,3.6
			c0.7,0.9,2.3,1.8,4,2.5c2.8,1.2,6,1.9,6,1.9s2.4,0,4.3,0c0.7,0,1.3,0,1.8,0c1.7,0,4.5-1.5,4.5-1.5s0.3-1.9,0-3.7"/>
		<path class="st9" d="M148.8,280.3c0,0,2.3,3.7,2.9,0c0.6-3.7-7.4-10.9-7.4-10.9l-5.2,4.7l-2.8,2.5l-4.4,3.7l0.9,0.2l3.5,0.6h2.7
			c0,0,2,1.1,3.5,1.1c1,0,1.8-0.4,1.8-1.9C144.4,276.7,148.8,280.3,148.8,280.3z"/>
		<path class="st9" d="M94,287.6l-1,2.3h6.1l4.3-4.4c1-3.1,0.7-7.4,0.2-7.6c-0.1,0-0.2-0.1-0.4-0.3c-1-0.7-3.2-2.5-4.7-3.6
			c-1.7-1.2-2.4,1.2-5.5,0c-3.1-1.2-4.4,3.4-4.4,3.4l-2.3,4.7c0,0-3.8,1-2.9,2.5c0.1,0.3,0.4,0.5,0.9,0.8c1,0.6,2.4,0.7,3.9,0.5"/>
		<polygon class="st9" points="88.1,286 88.1,286 88.5,289.9 94,287.6 99.1,285.5 100,280.3 100,280.3 93,280.3 89.5,284.4 		"/>
		<path class="st9" d="M293.6,294.2c0.5,0.2,0.7,0.3,0.8,0.2"/>
		<line class="st9" x1="286" y1="289.4" x2="286.3" y2="289.9"/>
		<path class="st9" d="M303.3,289.9c0,0,6.3,0.5,6.3-4.8s0-5.3,0-5.3s-6.9-5.8-8.8-5.7c-1.7,0-8.6,1.5-12.2,0.2
			c-0.4-0.1-0.7-0.3-1-0.5c-3.2-2.1-10-1.3-8.2,2.1c1.9,3.4,0,6.4,0,6.4l5,3.3l0.5,1.2"/>
		<path class="st9" d="M286.5,289.6c-0.2,0.2-0.2,0.3-0.2,0.3s-2.5,3.9-2.5,4.5c0,0.5,4.9-1.1,9.8-0.2c0.3,0,0.5,0.1,0.8,0.2
			c5.2,1.3,8.3,0.1,8.3,0.1s1.9-0.2,0.6-4.5c-1.3-4.4-3.8-8.1-3.8-8.1l-5.2-1.5c0,0-0.2,0.1-0.6,0.2"/>
		<polygon class="st9" points="287.5,276.9 284.9,286.7 284.4,288.6 286,289.4 286.5,289.6 287.5,290.1 290.1,287.2 293.7,280.6 
			293.7,280.6 		"/>
	</g>
</g>
<polygon class="st1" points="140.7,186.3 147.2,187 146.1,176.7 140.7,173.4 137.9,173.4 133.1,178.4 "/>
<path class="st9" d="M152,186.1c0,0,9.8,2,9.3,4.8c-0.5,2.7,1,2.5-1.3,4.2s-6,3.6-8,3.9c-2,0.3-5.4,1.2-5.6,0
	c-0.3-1.2-1.3-2.5-0.7-3.6c0.6-1.1-10-2.4-9.2,2.5c0.7,4.9-0.2,6-2.2,5.8c-2-0.3-8.5-0.1-6.8-4.2"/>
<path class="st9" d="M147.2,193.5l-3,10.2c0,0-10,5.1-14,3.4c-4-1.7-9.9-1.3-13.8,1c-3.9,2.3-1.5,5.1-1.5,5.1l-5.3-4.7"/>
<g>
</g>
<g>
</g>
<g>
</g>
<g>
</g>
<g>
</g>
<g>
</g>
</svg>
